<svg width="90" height="90" viewBox="0 0 90 90" fill="none" xmlns="http://www.w3.org/2000/svg">
<circle opacity="0.2" cx="45" cy="45" r="45" fill="#1B2133"/>
<rect x="4.91041" y="4.90912" width="80.1781" height="80.1781" rx="4.58186" stroke="white" stroke-width="0.482301"/>
<rect x="9.03094" y="9.02905" width="71.9387" height="71.9387" rx="35.9694" stroke="white" stroke-width="1.9292"/>
<circle cx="11.8839" cy="11.8858" r="2.73055" stroke="white" stroke-width="0.482301"/>
<circle cx="11.8839" cy="78.1123" r="2.73055" stroke="white" stroke-width="0.482301"/>
<circle cx="78.1131" cy="11.8858" r="2.73055" stroke="white" stroke-width="0.482301"/>
<circle cx="78.1131" cy="78.1123" r="2.73055" stroke="white" stroke-width="0.482301"/>
<path d="M70.8957 44.9978C70.8957 46.0342 70.0555 46.8743 69.0191 46.8743C67.9828 46.8743 67.1426 46.0342 67.1426 44.9978C67.1426 43.9614 67.9828 43.1213 69.0191 43.1213C70.0555 43.1213 70.8957 43.9614 70.8957 44.9978Z" fill="white"/>
<path d="M64.8908 44.9978C64.8908 46.0342 64.0506 46.8743 63.0142 46.8743C61.9778 46.8743 61.1377 46.0342 61.1377 44.9978C61.1377 43.9614 61.9778 43.1213 63.0142 43.1213C64.0506 43.1213 64.8908 43.9614 64.8908 44.9978Z" fill="white"/>
<path d="M58.8858 44.9978C58.8858 46.0342 58.0457 46.8743 57.0093 46.8743C55.9729 46.8743 55.1328 46.0342 55.1328 44.9978C55.1328 43.9614 55.9729 43.1213 57.0093 43.1213C58.0457 43.1213 58.8858 43.9614 58.8858 44.9978Z" fill="white"/>
<path d="M52.8809 44.9978C52.8809 46.0342 52.0408 46.8743 51.0044 46.8743C49.968 46.8743 49.1278 46.0342 49.1278 44.9978C49.1278 43.9614 49.968 43.1213 51.0044 43.1213C52.0408 43.1213 52.8809 43.9614 52.8809 44.9978Z" fill="white"/>
<path d="M46.876 44.9978C46.876 46.0342 46.0358 46.8743 44.9995 46.8743C43.9631 46.8743 43.1229 46.0342 43.1229 44.9978C43.1229 43.9614 43.9631 43.1213 44.9995 43.1213C46.0358 43.1213 46.876 43.9614 46.876 44.9978Z" fill="white"/>
<path d="M40.8711 44.9978C40.8711 46.0342 40.0309 46.8743 38.9945 46.8743C37.9581 46.8743 37.118 46.0342 37.118 44.9978C37.118 43.9614 37.9581 43.1213 38.9945 43.1213C40.0309 43.1213 40.8711 43.9614 40.8711 44.9978Z" fill="white"/>
<path d="M34.8661 44.9978C34.8661 46.0342 34.026 46.8743 32.9896 46.8743C31.9532 46.8743 31.1131 46.0342 31.1131 44.9978C31.1131 43.9614 31.9532 43.1213 32.9896 43.1213C34.026 43.1213 34.8661 43.9614 34.8661 44.9978Z" fill="white"/>
<path d="M28.8612 44.9978C28.8612 46.0342 28.0211 46.8743 26.9847 46.8743C25.9483 46.8743 25.1081 46.0342 25.1081 44.9978C25.1081 43.9614 25.9483 43.1213 26.9847 43.1213C28.0211 43.1213 28.8612 43.9614 28.8612 44.9978Z" fill="white"/>
<path d="M22.8563 44.9978C22.8563 46.0342 22.0161 46.8743 20.9798 46.8743C19.9434 46.8743 19.1032 46.0342 19.1032 44.9978C19.1032 43.9614 19.9434 43.1213 20.9798 43.1213C22.0161 43.1213 22.8563 43.9614 22.8563 44.9978Z" fill="white"/>
<path d="M70.8957 51.0027C70.8957 52.0391 70.0555 52.8792 69.0191 52.8792C67.9828 52.8792 67.1426 52.0391 67.1426 51.0027C67.1426 49.9663 67.9828 49.1262 69.0191 49.1262C70.0555 49.1262 70.8957 49.9663 70.8957 51.0027Z" fill="white"/>
<path d="M64.8908 51.0027C64.8908 52.0391 64.0506 52.8792 63.0142 52.8792C61.9778 52.8792 61.1377 52.0391 61.1377 51.0027C61.1377 49.9663 61.9778 49.1262 63.0142 49.1262C64.0506 49.1262 64.8908 49.9663 64.8908 51.0027Z" fill="white"/>
<path d="M58.8858 51.0027C58.8858 52.0391 58.0457 52.8792 57.0093 52.8792C55.9729 52.8792 55.1328 52.0391 55.1328 51.0027C55.1328 49.9663 55.9729 49.1262 57.0093 49.1262C58.0457 49.1262 58.8858 49.9663 58.8858 51.0027Z" fill="white"/>
<path d="M52.8809 51.0027C52.8809 52.0391 52.0408 52.8792 51.0044 52.8792C49.968 52.8792 49.1278 52.0391 49.1278 51.0027C49.1278 49.9663 49.968 49.1262 51.0044 49.1262C52.0408 49.1262 52.8809 49.9663 52.8809 51.0027Z" fill="white"/>
<path d="M46.876 51.0027C46.876 52.0391 46.0358 52.8792 44.9995 52.8792C43.9631 52.8792 43.1229 52.0391 43.1229 51.0027C43.1229 49.9663 43.9631 49.1262 44.9995 49.1262C46.0358 49.1262 46.876 49.9663 46.876 51.0027Z" fill="white"/>
<path d="M40.8711 51.0027C40.8711 52.0391 40.0309 52.8792 38.9945 52.8792C37.9581 52.8792 37.118 52.0391 37.118 51.0027C37.118 49.9663 37.9581 49.1262 38.9945 49.1262C40.0309 49.1262 40.8711 49.9663 40.8711 51.0027Z" fill="white"/>
<path d="M34.8661 51.0027C34.8661 52.0391 34.026 52.8792 32.9896 52.8792C31.9532 52.8792 31.1131 52.0391 31.1131 51.0027C31.1131 49.9663 31.9532 49.1262 32.9896 49.1262C34.026 49.1262 34.8661 49.9663 34.8661 51.0027Z" fill="white"/>
<path d="M28.8612 51.0027C28.8612 52.0391 28.0211 52.8792 26.9847 52.8792C25.9483 52.8792 25.1081 52.0391 25.1081 51.0027C25.1081 49.9663 25.9483 49.1262 26.9847 49.1262C28.0211 49.1262 28.8612 49.9663 28.8612 51.0027Z" fill="white"/>
<path d="M22.8563 51.0027C22.8563 52.0391 22.0161 52.8792 20.9798 52.8792C19.9434 52.8792 19.1032 52.0391 19.1032 51.0027C19.1032 49.9663 19.9434 49.1262 20.9798 49.1262C22.0161 49.1262 22.8563 49.9663 22.8563 51.0027Z" fill="white"/>
<path d="M64.8908 57.0076C64.8908 58.044 64.0506 58.8842 63.0142 58.8842C61.9778 58.8842 61.1377 58.044 61.1377 57.0076C61.1377 55.9713 61.9778 55.1311 63.0142 55.1311C64.0506 55.1311 64.8908 55.9713 64.8908 57.0076Z" fill="white"/>
<path d="M58.8858 57.0076C58.8858 58.044 58.0457 58.8842 57.0093 58.8842C55.9729 58.8842 55.1328 58.044 55.1328 57.0076C55.1328 55.9713 55.9729 55.1311 57.0093 55.1311C58.0457 55.1311 58.8858 55.9713 58.8858 57.0076Z" fill="white"/>
<path d="M52.8809 57.0076C52.8809 58.044 52.0408 58.8842 51.0044 58.8842C49.968 58.8842 49.1278 58.044 49.1278 57.0076C49.1278 55.9713 49.968 55.1311 51.0044 55.1311C52.0408 55.1311 52.8809 55.9713 52.8809 57.0076Z" fill="white"/>
<path d="M46.876 57.0076C46.876 58.044 46.0358 58.8842 44.9995 58.8842C43.9631 58.8842 43.1229 58.044 43.1229 57.0076C43.1229 55.9713 43.9631 55.1311 44.9995 55.1311C46.0358 55.1311 46.876 55.9713 46.876 57.0076Z" fill="white"/>
<path d="M40.8711 57.0076C40.8711 58.044 40.0309 58.8842 38.9945 58.8842C37.9581 58.8842 37.118 58.044 37.118 57.0076C37.118 55.9713 37.9581 55.1311 38.9945 55.1311C40.0309 55.1311 40.8711 55.9713 40.8711 57.0076Z" fill="white"/>
<path d="M34.8661 57.0076C34.8661 58.044 34.026 58.8842 32.9896 58.8842C31.9532 58.8842 31.1131 58.044 31.1131 57.0076C31.1131 55.9713 31.9532 55.1311 32.9896 55.1311C34.026 55.1311 34.8661 55.9713 34.8661 57.0076Z" fill="white"/>
<path d="M28.8612 57.0076C28.8612 58.044 28.0211 58.8842 26.9847 58.8842C25.9483 58.8842 25.1081 58.044 25.1081 57.0076C25.1081 55.9713 25.9483 55.1311 26.9847 55.1311C28.0211 55.1311 28.8612 55.9713 28.8612 57.0076Z" fill="white"/>
<path d="M58.8858 63.0126C58.8858 64.0489 58.0457 64.8891 57.0093 64.8891C55.9729 64.8891 55.1328 64.0489 55.1328 63.0126C55.1328 61.9762 55.9729 61.136 57.0093 61.136C58.0457 61.136 58.8858 61.9762 58.8858 63.0126Z" fill="white"/>
<path d="M52.8809 63.0126C52.8809 64.0489 52.0408 64.8891 51.0044 64.8891C49.968 64.8891 49.1278 64.0489 49.1278 63.0126C49.1278 61.9762 49.968 61.136 51.0044 61.136C52.0408 61.136 52.8809 61.9762 52.8809 63.0126Z" fill="white"/>
<path d="M46.876 63.0126C46.876 64.0489 46.0358 64.8891 44.9995 64.8891C43.9631 64.8891 43.1229 64.0489 43.1229 63.0126C43.1229 61.9762 43.9631 61.136 44.9995 61.136C46.0358 61.136 46.876 61.9762 46.876 63.0126Z" fill="white"/>
<path d="M40.8711 63.0126C40.8711 64.0489 40.0309 64.8891 38.9945 64.8891C37.9581 64.8891 37.118 64.0489 37.118 63.0126C37.118 61.9762 37.9581 61.136 38.9945 61.136C40.0309 61.136 40.8711 61.9762 40.8711 63.0126Z" fill="white"/>
<path d="M34.8661 63.0126C34.8661 64.0489 34.026 64.8891 32.9896 64.8891C31.9532 64.8891 31.1131 64.0489 31.1131 63.0126C31.1131 61.9762 31.9532 61.136 32.9896 61.136C34.026 61.136 34.8661 61.9762 34.8661 63.0126Z" fill="white"/>
<path d="M52.8809 69.0175C52.8809 70.0539 52.0408 70.894 51.0044 70.894C49.968 70.894 49.1278 70.0539 49.1278 69.0175C49.1278 67.9811 49.968 67.1409 51.0044 67.1409C52.0408 67.1409 52.8809 67.9811 52.8809 69.0175Z" fill="white"/>
<path d="M46.876 69.0175C46.876 70.0539 46.0358 70.894 44.9995 70.894C43.9631 70.894 43.1229 70.0539 43.1229 69.0175C43.1229 67.9811 43.9631 67.1409 44.9995 67.1409C46.0358 67.1409 46.876 67.9811 46.876 69.0175Z" fill="white"/>
<path d="M40.8711 69.0175C40.8711 70.0539 40.0309 70.894 38.9945 70.894C37.9581 70.894 37.118 70.0539 37.118 69.0175C37.118 67.9811 37.9581 67.1409 38.9945 67.1409C40.0309 67.1409 40.8711 67.9811 40.8711 69.0175Z" fill="white"/>
<path d="M70.8957 38.9929C70.8957 40.0293 70.0555 40.8694 69.0191 40.8694C67.9828 40.8694 67.1426 40.0293 67.1426 38.9929C67.1426 37.9565 67.9828 37.1163 69.0191 37.1163C70.0555 37.1163 70.8957 37.9565 70.8957 38.9929Z" fill="white"/>
<path d="M64.8908 38.9929C64.8908 40.0293 64.0506 40.8694 63.0142 40.8694C61.9778 40.8694 61.1377 40.0293 61.1377 38.9929C61.1377 37.9565 61.9778 37.1163 63.0142 37.1163C64.0506 37.1163 64.8908 37.9565 64.8908 38.9929Z" fill="white"/>
<path d="M58.8858 38.9929C58.8858 40.0293 58.0457 40.8694 57.0093 40.8694C55.9729 40.8694 55.1328 40.0293 55.1328 38.9929C55.1328 37.9565 55.9729 37.1163 57.0093 37.1163C58.0457 37.1163 58.8858 37.9565 58.8858 38.9929Z" fill="white"/>
<path d="M52.8809 38.9929C52.8809 40.0293 52.0408 40.8694 51.0044 40.8694C49.968 40.8694 49.1278 40.0293 49.1278 38.9929C49.1278 37.9565 49.968 37.1163 51.0044 37.1163C52.0408 37.1163 52.8809 37.9565 52.8809 38.9929Z" fill="white"/>
<path d="M46.876 38.9929C46.876 40.0293 46.0358 40.8694 44.9995 40.8694C43.9631 40.8694 43.1229 40.0293 43.1229 38.9929C43.1229 37.9565 43.9631 37.1163 44.9995 37.1163C46.0358 37.1163 46.876 37.9565 46.876 38.9929Z" fill="white"/>
<path d="M40.8711 38.9929C40.8711 40.0293 40.0309 40.8694 38.9945 40.8694C37.9581 40.8694 37.118 40.0293 37.118 38.9929C37.118 37.9565 37.9581 37.1163 38.9945 37.1163C40.0309 37.1163 40.8711 37.9565 40.8711 38.9929Z" fill="white"/>
<path d="M34.8661 38.9929C34.8661 40.0293 34.026 40.8694 32.9896 40.8694C31.9532 40.8694 31.1131 40.0293 31.1131 38.9929C31.1131 37.9565 31.9532 37.1163 32.9896 37.1163C34.026 37.1163 34.8661 37.9565 34.8661 38.9929Z" fill="white"/>
<path d="M28.8612 38.9929C28.8612 40.0293 28.0211 40.8694 26.9847 40.8694C25.9483 40.8694 25.1081 40.0293 25.1081 38.9929C25.1081 37.9565 25.9483 37.1163 26.9847 37.1163C28.0211 37.1163 28.8612 37.9565 28.8612 38.9929Z" fill="white"/>
<path d="M22.8563 38.9929C22.8563 40.0293 22.0161 40.8694 20.9798 40.8694C19.9434 40.8694 19.1032 40.0293 19.1032 38.9929C19.1032 37.9565 19.9434 37.1163 20.9798 37.1163C22.0161 37.1163 22.8563 37.9565 22.8563 38.9929Z" fill="white"/>
<path d="M64.8908 32.9879C64.8908 34.0243 64.0506 34.8645 63.0142 34.8645C61.9778 34.8645 61.1377 34.0243 61.1377 32.9879C61.1377 31.9516 61.9778 31.1114 63.0142 31.1114C64.0506 31.1114 64.8908 31.9516 64.8908 32.9879Z" fill="white"/>
<path d="M58.8858 32.9879C58.8858 34.0243 58.0457 34.8645 57.0093 34.8645C55.9729 34.8645 55.1328 34.0243 55.1328 32.9879C55.1328 31.9516 55.9729 31.1114 57.0093 31.1114C58.0457 31.1114 58.8858 31.9516 58.8858 32.9879Z" fill="white"/>
<path d="M52.8809 32.9879C52.8809 34.0243 52.0408 34.8645 51.0044 34.8645C49.968 34.8645 49.1278 34.0243 49.1278 32.9879C49.1278 31.9516 49.968 31.1114 51.0044 31.1114C52.0408 31.1114 52.8809 31.9516 52.8809 32.9879Z" fill="white"/>
<path d="M46.876 32.9879C46.876 34.0243 46.0358 34.8645 44.9995 34.8645C43.9631 34.8645 43.1229 34.0243 43.1229 32.9879C43.1229 31.9516 43.9631 31.1114 44.9995 31.1114C46.0358 31.1114 46.876 31.9516 46.876 32.9879Z" fill="white"/>
<path d="M40.8711 32.9879C40.8711 34.0243 40.0309 34.8645 38.9945 34.8645C37.9581 34.8645 37.118 34.0243 37.118 32.9879C37.118 31.9516 37.9581 31.1114 38.9945 31.1114C40.0309 31.1114 40.8711 31.9516 40.8711 32.9879Z" fill="white"/>
<path d="M34.8661 32.9879C34.8661 34.0243 34.026 34.8645 32.9896 34.8645C31.9532 34.8645 31.1131 34.0243 31.1131 32.9879C31.1131 31.9516 31.9532 31.1114 32.9896 31.1114C34.026 31.1114 34.8661 31.9516 34.8661 32.9879Z" fill="white"/>
<path d="M28.8612 32.9879C28.8612 34.0243 28.0211 34.8645 26.9847 34.8645C25.9483 34.8645 25.1081 34.0243 25.1081 32.9879C25.1081 31.9516 25.9483 31.1114 26.9847 31.1114C28.0211 31.1114 28.8612 31.9516 28.8612 32.9879Z" fill="white"/>
<path d="M58.8858 26.983C58.8858 28.0194 58.0457 28.8596 57.0093 28.8596C55.9729 28.8596 55.1328 28.0194 55.1328 26.983C55.1328 25.9466 55.9729 25.1065 57.0093 25.1065C58.0457 25.1065 58.8858 25.9466 58.8858 26.983Z" fill="white"/>
<path d="M52.8809 26.983C52.8809 28.0194 52.0408 28.8596 51.0044 28.8596C49.968 28.8596 49.1278 28.0194 49.1278 26.983C49.1278 25.9466 49.968 25.1065 51.0044 25.1065C52.0408 25.1065 52.8809 25.9466 52.8809 26.983Z" fill="white"/>
<path d="M46.876 26.983C46.876 28.0194 46.0358 28.8596 44.9995 28.8596C43.9631 28.8596 43.1229 28.0194 43.1229 26.983C43.1229 25.9466 43.9631 25.1065 44.9995 25.1065C46.0358 25.1065 46.876 25.9466 46.876 26.983Z" fill="white"/>
<path d="M40.8711 26.983C40.8711 28.0194 40.0309 28.8596 38.9945 28.8596C37.9581 28.8596 37.118 28.0194 37.118 26.983C37.118 25.9466 37.9581 25.1065 38.9945 25.1065C40.0309 25.1065 40.8711 25.9466 40.8711 26.983Z" fill="white"/>
<path d="M34.8661 26.983C34.8661 28.0194 34.026 28.8596 32.9896 28.8596C31.9532 28.8596 31.1131 28.0194 31.1131 26.983C31.1131 25.9466 31.9532 25.1065 32.9896 25.1065C34.026 25.1065 34.8661 25.9466 34.8661 26.983Z" fill="white"/>
<path d="M52.8809 20.9781C52.8809 22.0145 52.0408 22.8546 51.0044 22.8546C49.968 22.8546 49.1278 22.0145 49.1278 20.9781C49.1278 19.9417 49.968 19.1016 51.0044 19.1016C52.0408 19.1016 52.8809 19.9417 52.8809 20.9781Z" fill="white"/>
<path d="M46.876 20.9781C46.876 22.0145 46.0358 22.8546 44.9995 22.8546C43.9631 22.8546 43.1229 22.0145 43.1229 20.9781C43.1229 19.9417 43.9631 19.1016 44.9995 19.1016C46.0358 19.1016 46.876 19.9417 46.876 20.9781Z" fill="white"/>
<path d="M40.8711 20.9781C40.8711 22.0145 40.0309 22.8546 38.9945 22.8546C37.9581 22.8546 37.118 22.0145 37.118 20.9781C37.118 19.9417 37.9581 19.1016 38.9945 19.1016C40.0309 19.1016 40.8711 19.9417 40.8711 20.9781Z" fill="white"/>
</svg>
