<svg width="115" height="90" viewBox="0 0 115 90" fill="none" xmlns="http://www.w3.org/2000/svg">
<g id="Group 645">
<circle id="Ellipse 12" opacity="0.2" cx="57.3232" cy="45" r="45" fill="#1B2133"/>
<g id="Group 640">
<g id="Group 627">
<path id="Rectangle 25" d="M93.6228 11.0371H98.9884C101.652 11.0371 103.811 13.1964 103.811 15.8601V21.2258H100.857C96.8618 21.2258 93.6228 17.9868 93.6228 13.9913V11.0371Z" fill="white"/>
<path id="Rectangle 26" d="M93.6228 78.9609H98.9884C101.652 78.9609 103.811 76.8016 103.811 74.1379V68.7723H100.857C96.8618 68.7723 93.6228 72.0113 93.6228 76.0068V78.9609Z" fill="white"/>
<path id="Rectangle 27" d="M21.2285 78.9609H15.8629C13.1992 78.9609 11.0399 76.8016 11.0399 74.1379V68.7723H13.994C17.9895 68.7723 21.2285 72.0113 21.2285 76.0068V78.9609Z" fill="white"/>
<path id="Rectangle 28" d="M21.2285 11.0371H15.8629C13.1992 11.0371 11.0399 13.1964 11.0399 15.8601V21.2258H13.994C17.9895 21.2258 21.2285 17.9868 21.2285 13.9913V11.0371Z" fill="white"/>
<path id="Rectangle 19" d="M14.7083 20.4923C17.9047 20.4923 20.4959 17.9011 20.4959 14.7047V12.0017H94.3587V14.7047C94.3587 17.9011 96.9498 20.4923 100.146 20.4923H102.849V69.5065H100.146C96.9498 69.5065 94.3587 72.0977 94.3587 75.2941V77.997H20.4959V75.2941C20.4959 72.0977 17.9047 69.5065 14.7083 69.5065H12.0054V20.4923H14.7083Z" stroke="white" stroke-width="1.9292"/>
<path id="Rectangle 29" d="M84.5362 24.0567L84.5378 24.0567L86.2148 24.0459C88.7568 24.0295 90.8263 26.0856 90.8263 28.6277V29.1117V60.8881V61.372C90.8263 63.9141 88.7568 65.9702 86.2148 65.9538L84.5378 65.943H84.5362L30.2973 65.943L30.2957 65.943L28.6186 65.9538C26.0766 65.9702 24.0072 63.9141 24.0072 61.372L24.0072 60.8881V29.1128L24.0123 28.594C24.0367 26.081 26.0808 24.0567 28.5939 24.0567H30.2973L84.5362 24.0567Z" stroke="white" stroke-width="0.482301"/>
<circle id="Ellipse 5" cx="15.7112" cy="15.7066" r="1.88149" stroke="white" stroke-width="0.482301"/>
<circle id="Ellipse 7" cx="15.7112" cy="74.2926" r="1.88149" stroke="white" stroke-width="0.482301"/>
<circle id="Ellipse 6" cx="98.7196" cy="16.1305" r="2.12264" stroke="#23419A" stroke-width="0.964602"/>
<circle id="Ellipse 9" cx="2.12264" cy="2.12264" r="2.12264" transform="matrix(1 0 0 -1 96.5969 75.9902)" stroke="#23419A" stroke-width="0.964602"/>
<circle id="Ellipse 10" cx="16.1352" cy="73.8676" r="2.12264" transform="rotate(180 16.1352 73.8676)" stroke="#23419A" stroke-width="0.964602"/>
<circle id="Ellipse 11" cx="2.12264" cy="2.12264" r="2.12264" transform="matrix(-1 0 0 1 18.2578 14.0078)" stroke="#23419A" stroke-width="0.964602"/>
<g id="Group 624">
<g id="Group 630">
<line id="Line 16" x1="12.7358" y1="41.7185" x2="-1.99168e-06" y2="41.7185" stroke="white" stroke-width="1.9292"/>
<line id="Line 19" x1="12.7358" y1="33.2283" x2="6.36792" y2="33.2283" stroke="white" stroke-width="1.9292"/>
<line id="Line 17" x1="12.7358" y1="50.2087" x2="-1.99168e-06" y2="50.2087" stroke="white" stroke-width="1.9292"/>
<line id="Line 18" x1="12.7358" y1="58.7009" x2="-1.99168e-06" y2="58.7009" stroke="white" stroke-width="1.9292"/>
</g>
</g>
<g id="Group 625">
<line id="Line 16_2" x1="114.848" y1="37.4724" x2="102.112" y2="37.4724" stroke="white" stroke-width="1.9292"/>
<line id="Line 19_2" x1="114.848" y1="28.9822" x2="102.112" y2="28.9822" stroke="white" stroke-width="1.9292"/>
<line id="Line 17_2" x1="114.848" y1="45.9646" x2="102.112" y2="45.9646" stroke="white" stroke-width="1.9292"/>
<line id="Line 18_2" x1="114.848" y1="54.4548" x2="102.112" y2="54.4548" stroke="white" stroke-width="1.9292"/>
<line id="Line 20" x1="114.848" y1="62.9451" x2="102.112" y2="62.9451" stroke="white" stroke-width="1.9292"/>
</g>
</g>
<g id="Group 631">
<g id="Group 637">
<g id="&#208;&#165;-&#208;&#165;-&#208;&#165;&#208;&#165;&#208;&#165;">
<path d="M44.7677 55.3331L43.1987 53.0645H44.1225L45.2772 54.7286L46.4455 53.0645H47.3421L45.7798 55.3195L47.41 57.8192H46.4726L45.2636 55.9173L44.0409 57.8192H43.1308L44.7677 55.3331Z" fill="white"/>
<path d="M47.8154 55.5641H49.9211V56.2705H47.8154V55.5641Z" fill="white"/>
<path d="M51.9648 55.3331L50.3958 53.0645H51.3195L52.4743 54.7286L53.6426 53.0645H54.5392L52.9769 55.3195L54.6071 57.8192H53.6697L52.4607 55.9173L51.238 57.8192H50.3278L51.9648 55.3331Z" fill="white"/>
<path d="M55.0125 55.5641H57.1182V56.2705H55.0125V55.5641Z" fill="white"/>
<path d="M59.1619 55.3331L57.5928 53.0645H58.5166L59.6713 54.7286L60.8396 53.0645H61.7362L60.174 55.3195L61.8042 57.8192H60.8668L59.6578 55.9173L58.4351 57.8192H57.5249L59.1619 55.3331Z" fill="white"/>
<path d="M63.845 55.3331L62.2759 53.0645H63.1997L64.3544 54.7286L65.5227 53.0645H66.4193L64.8571 55.3195L66.4872 57.8192H65.5499L64.3408 55.9173L63.1182 57.8192H62.208L63.845 55.3331Z" fill="white"/>
<path d="M68.5281 55.3331L66.959 53.0645H67.8828L69.0375 54.7286L70.2058 53.0645H71.1024L69.5401 55.3195L71.1703 57.8192H70.233L69.0239 55.9173L67.8013 57.8192H66.8911L68.5281 55.3331Z" fill="white"/>
</g>
</g>
</g>
<g id="Group 653">
<g id="Vector">
<path d="M57.4211 31.8379C49.9001 31.8379 44.011 35.566 44.011 40.3146C44.011 45.0632 49.9071 48.819 57.4211 48.819C64.935 48.819 70.8521 45.0909 70.8521 40.3146C70.8521 35.5382 64.956 31.8379 57.4211 31.8379ZM57.4211 47.3333C49.991 47.3333 44.1579 44.2509 44.1579 40.3146C44.1579 36.3782 49.991 33.2958 57.4211 33.2958C64.8511 33.2958 70.714 36.3782 70.714 40.3146C70.714 44.2509 64.8808 47.3333 57.4211 47.3333Z" fill="white"/>
<path d="M48.144 38.7525L48.3329 38.2527C48.9416 36.6698 49.4243 36.2741 51.1454 36.2741C53.0694 36.2741 53.3492 36.649 52.7406 38.2527L51.4812 41.5226C50.8516 43.1679 50.2849 43.5011 48.3749 43.5011C46.6766 43.5011 46.4229 43.1888 47.0736 41.5226L47.3464 40.7936H49.0046L48.6268 41.7517C48.4798 42.1474 48.5428 42.2515 48.8996 42.2515C49.2564 42.2515 49.3614 42.1473 49.5293 41.7516L50.075 40.3145L49.2564 40.3146L49.7392 39.0858L50.5507 39.0858L50.9495 38.0236C51.0964 37.6279 51.0755 37.5237 50.7186 37.5237C50.3618 37.5237 50.2149 37.6279 50.068 38.0236L49.7741 38.7525H48.144Z" fill="white"/>
<path d="M57.8828 38.4193L55.9588 43.4178H54.3637L55.8539 39.5231H55.1543L54.3777 41.5225C53.9369 42.668 53.2863 43.5011 52.1039 43.5011C51.8367 43.5036 51.5698 43.4827 51.3063 43.4386L51.7051 42.3973H51.915C52.0934 42.414 52.2721 42.3693 52.4212 42.2707C52.5702 42.1721 52.6805 42.0256 52.7336 41.8558L54.0559 38.4193L57.8828 38.4193Z" fill="white"/>
<path d="M61.3879 36.3574L59.457 41.0435L62.6473 36.3574H64.7671L62.0386 43.4178L60.4015 43.4178L62.2905 38.8567L59.1841 43.4178L57.024 43.4179L59.7298 36.3574H61.3879Z" fill="white"/>
<path d="M65.9425 40.2105H66.7191L67.4117 38.4193H69.0069L67.0969 43.4178H65.5017L66.2993 41.3143L65.5227 41.3143L64.7042 43.4178L63.109 43.4178L65.04 38.4193H66.6351L65.9425 40.2105Z" fill="white"/>
</g>
</g>
</g>
</g>
</svg>
