<svg width="217" height="40" viewBox="0 0 217 40" fill="none" xmlns="http://www.w3.org/2000/svg">
<path d="M68.9294 25.5719V24.7508C68.9294 22.0529 69.5056 21.4664 72.9627 21.4664C76.8712 21.4664 77.6875 22.0529 77.6875 24.7508V30.264C77.6875 32.9619 76.7272 33.5484 72.9627 33.5484C69.6208 33.5484 68.9294 33.0792 68.9294 30.264V28.9737H72.156V30.6159C72.156 31.3197 72.3865 31.437 73.1164 31.437C73.8462 31.437 74.0767 31.3197 74.0767 30.6159V28.2699H72.4634V26.1584H74.0767V24.399C74.0767 23.6951 73.8462 23.5778 73.1164 23.5778C72.3865 23.5778 72.156 23.6951 72.156 24.399V25.5719H68.9294Z" fill="#23419A"/>
<path d="M90.4692 21.5833V33.4307H86.7816V23.6557H84.9378V29.2861C84.9378 31.8667 83.6702 33.5089 80.7893 33.5089C79.9826 33.5089 79.5216 33.3916 78.9455 33.3916V30.811C79.3194 30.9209 79.7099 30.9607 80.0978 30.9283C81.0582 30.9283 81.3655 30.3418 81.3655 29.2861V21.5442L90.4692 21.5833Z" fill="#23419A"/>
<path d="M99.4673 21.5834V23.6948H96.3559V26.2656H99.3521V28.2695H96.3559V31.3193H99.813V33.4307H92.6683V21.5834H99.4673Z" fill="#23419A"/>
<path d="M105.229 26.7348L107.534 21.5834H111.222L108.225 27.0867L111.683 33.4307H107.88L105.229 28.0349V33.4307H101.542V21.5834H105.229V26.7348Z" fill="#23419A"/>
<path d="M120.325 21.5834V23.6948H117.896V33.4307H114.333V23.6948H111.913V21.5834H120.325Z" fill="#23419A"/>
<path d="M125.271 33.4307H121.699V21.5834H125.271C129.189 21.5834 130.802 22.0526 130.802 24.6332V26.9792C130.802 29.4425 129.42 30.029 125.847 30.029H125.271V33.4307ZM125.271 27.9176H126.078C126.884 27.9176 127.23 27.683 127.23 27.0965V24.5159C127.23 23.8121 126.884 23.6948 126.078 23.6948H125.271V27.9176Z" fill="#23419A"/>
<path d="M141.635 24.7508V30.264C141.635 33.0792 140.828 33.5484 136.91 33.5484C132.992 33.5484 132.3 32.9619 132.3 30.264V24.7508C132.3 22.0529 133.107 21.4664 136.91 21.4664C140.713 21.4664 141.635 22.0529 141.635 24.7508ZM135.988 24.399V30.6159C135.988 31.3197 136.219 31.437 136.948 31.437C137.678 31.437 137.909 31.3197 137.909 30.6159V24.399C137.909 23.6951 137.793 23.5778 136.948 23.5778C136.103 23.5778 135.988 23.6951 135.988 24.399Z" fill="#23419A"/>
<path d="M147.281 26.1581H149.125V21.5834H152.697V33.4307H149.125V28.2695H147.281V33.4307H143.719V21.5834H147.281V26.1581Z" fill="#23419A"/>
<path d="M158.344 21.5834L157.998 29.4425L160.764 21.5834H165.028V33.4307H161.801L162.032 25.8062L159.266 33.4307H155.002V21.5834H158.344Z" fill="#23419A"/>
<path d="M170.905 26.1581H172.749V21.5834H176.321V33.4307H172.749V28.2695H170.905V33.4307H167.333V21.5834H170.905V26.1581Z" fill="#23419A"/>
<path d="M178.626 21.5834H183.427C186.654 21.5834 187.922 21.9353 187.922 24.0467V25.1024C187.922 26.3927 187.23 26.9792 185.387 27.2138C187.23 27.3311 188.037 28.0349 188.037 29.5598V30.9674C188.037 33.0788 186.769 33.4307 183.658 33.4307H178.587L178.626 21.5834ZM182.198 26.3927H183.235C184.042 26.3927 184.388 26.2754 184.388 25.5716V24.5159C184.388 23.8121 184.042 23.6948 183.235 23.6948H182.198V26.3927ZM182.198 31.2802H183.351C184.157 31.2802 184.503 31.1629 184.503 30.4591V29.0515C184.503 28.3477 184.157 28.2304 183.351 28.2304H182.198V31.2802Z" fill="#23419A"/>
<path d="M196.949 21.5834V23.6948H193.722V26.2656H196.718V28.2695H193.722V31.3193H197.294V33.4307H190.15V21.5834H196.949Z" fill="#23419A"/>
<path d="M204.324 25.5719V24.399C204.324 23.6951 204.093 23.5778 203.364 23.5778C202.634 23.5778 202.557 23.6951 202.557 24.399V30.6159C202.557 31.3197 202.663 31.437 203.364 31.437C204.065 31.437 204.324 31.3197 204.324 30.6159V28.9737H207.541V30.264C207.541 32.9619 206.859 33.5484 203.508 33.5484C199.666 33.5484 198.792 32.9619 198.792 30.264V24.7508C198.792 22.0529 199.599 21.4664 203.508 21.4664C206.974 21.4664 207.541 22.2875 207.541 24.7508V25.5719H204.324Z" fill="#23419A"/>
<path d="M217 21.5834V23.6948H214.58V33.4307H211.008V23.6948H208.472V21.5834H217Z" fill="#23419A"/>
<path d="M73.7694 8.21141V9.03252H70.3122V16.4225H69.1599V8.21141H73.7694Z" fill="#23419A"/>
<path d="M77.2265 8.32867C77.9463 8.17306 78.6801 8.09444 79.416 8.09408C80.2813 8.0059 81.1471 8.25766 81.836 8.79787C82.0954 9.0067 82.3028 9.27487 82.4413 9.58059C82.5798 9.88631 82.6455 10.221 82.6331 10.5574C82.6416 10.8823 82.5857 11.2056 82.4685 11.5079C82.3513 11.8103 82.1754 12.0854 81.9512 12.3169C81.1989 12.9167 80.2538 13.2094 79.3008 13.138H78.3405V16.442H77.1881L77.2265 8.32867ZM78.3789 12.2387C78.6869 12.3483 79.0145 12.3883 79.3392 12.356C80.7125 12.356 81.5191 11.7695 81.5191 10.5965C81.5191 9.42348 80.7125 8.95427 79.4545 8.95427C78.9935 8.95427 78.6478 9.07158 78.4173 9.07158L78.3789 12.2387Z" fill="#23419A"/>
<path d="M86.7816 8.21141L89.2016 13.138C89.3624 12.6181 89.5549 12.1088 89.7778 11.6131L91.0454 8.21141H92.3131L90.4692 12.4342C90.0505 13.5116 89.509 14.5352 88.8559 15.484C88.6399 15.8014 88.3534 16.0625 88.0197 16.2459C87.686 16.4293 87.3144 16.53 86.9353 16.5398C86.6985 16.5687 86.4586 16.528 86.2439 16.4225L86.3591 15.6014H86.82C87.7803 15.6014 88.2029 14.7803 88.5486 14.1938C88.5535 14.0295 88.5136 13.8671 88.4333 13.7245L85.5524 8.21141H86.7816Z" fill="#23419A"/>
<path d="M102.003 8.21141V16.4225H100.965V9.03252H96.9321V16.4225H95.7798V8.21141H102.003Z" fill="#23419A"/>
<path d="M112.835 8.21141V16.4225H111.683V9.03252H107.649V16.4225H106.497V8.21141H112.835Z" fill="#23419A"/>
<path d="M118.702 13.8418L117.742 16.4225H116.59L119.586 8.21141H120.969L123.85 16.4225H122.697L121.737 13.8418H118.702ZM121.583 13.0207L120.623 10.5574L120.277 9.14981H120.162L119.816 10.5574L118.856 13.0207H121.583Z" fill="#23419A"/>
<path d="M134.144 8.21141V11.8477H134.49L137.486 8.21141H138.754L135.527 11.965C136.098 12.0098 136.641 12.2386 137.076 12.6182C137.511 12.9978 137.816 13.5085 137.947 14.0764C138.293 14.8975 138.523 15.6014 138.907 16.4225H137.755C137.42 15.8013 137.149 15.146 136.948 14.4675C136.831 13.9212 136.518 13.4388 136.071 13.1138C135.624 12.7887 135.074 12.6441 134.528 12.7079H134.183V16.442H133.03V8.23096L134.144 8.21141Z" fill="#23419A"/>
<path d="M149.701 12.1995C149.747 12.7614 149.677 13.3269 149.493 13.859C149.31 14.3912 149.019 14.878 148.638 15.2876C148.257 15.6972 147.796 16.0205 147.284 16.2362C146.772 16.452 146.222 16.5554 145.668 16.5397C143.363 16.5397 141.827 14.7802 141.827 12.3168C141.784 11.771 141.853 11.2221 142.032 10.7055C142.21 10.189 142.494 9.71637 142.863 9.31828C143.232 8.92018 143.68 8.6055 144.176 8.3946C144.673 8.18371 145.207 8.08131 145.745 8.09402C146.277 8.06414 146.809 8.15082 147.306 8.34821C147.802 8.54561 148.251 8.84913 148.623 9.23827C148.994 9.62741 149.279 10.0931 149.458 10.604C149.638 11.1148 149.708 11.6589 149.663 12.1995H149.701ZM142.941 12.3168C142.941 14.0763 143.978 15.6013 145.706 15.6013C147.435 15.6013 148.472 14.0764 148.472 12.1995C148.472 10.5573 147.512 8.91512 145.706 8.91512C143.901 8.91512 142.941 10.5573 142.941 12.3168Z" fill="#23419A"/>
<path d="M160.995 12.7861C160.995 11.6131 160.879 10.2055 160.879 9.26709C160.534 10.2446 160.188 11.2221 159.727 12.3169L158.229 16.3051H157.269L155.886 12.3951C155.54 11.2221 155.194 10.1664 154.925 9.22798H154.887C154.887 10.2055 154.887 11.574 154.772 12.8643L154.541 16.3833H153.504L154.08 8.17227H155.463L156.961 12.0823C157.307 13.138 157.653 14.0373 157.922 14.8975C158.152 14.0764 158.498 13.138 158.882 12.0823L160.38 8.17227H161.878L162.339 16.3833H161.225L160.995 12.7861Z" fill="#23419A"/>
<path d="M172.864 8.21141V16.4225H171.712V9.03252H167.678V16.4225H166.641V8.21141H172.864Z" fill="#23419A"/>
<path d="M178.741 13.8418L177.781 16.4225H176.628L179.625 8.21141H181.008L183.888 16.4225H182.736L181.776 13.8418H178.741ZM181.622 13.0207L180.815 10.577C180.61 10.1268 180.456 9.65467 180.355 9.16936H180.239L179.855 10.577L178.895 13.0403L181.622 13.0207Z" fill="#23419A"/>
<path d="M188.882 8.21141V11.6131H193.146V8.21141H194.183V16.4225H193.146V12.5515H188.882V16.4225H187.845V8.21141H188.882Z" fill="#23419A"/>
<path d="M199.83 8.21141V11.6131C199.83 12.9034 199.714 13.9591 199.714 15.1321C200.166 14.311 200.751 13.3726 201.328 12.4342L204.084 8.21141H205.246V16.442H204.209V12.923C204.185 11.7878 204.224 10.6521 204.324 9.52126H204.209C203.799 10.5299 203.256 11.477 202.595 12.3365L199.935 16.442H198.792V8.23096L199.83 8.21141Z" fill="#23419A"/>
<path d="M210.768 8.21113V11.6128C210.789 12.7871 210.75 13.9617 210.652 15.1319H210.768C211.203 14.1729 211.744 13.2677 212.381 12.4339L215.147 8.21113H216.347V16.4417H215.195V12.9227C215.195 11.6324 215.31 10.5767 215.31 9.52098C214.849 10.4985 214.273 11.3978 213.697 12.3362L211.046 16.4417H209.778V8.23068L210.768 8.21113ZM212.266 6.45161C212.266 6.80351 212.381 7.27271 212.957 7.27271C213.066 7.2871 213.177 7.27578 213.282 7.2396C213.386 7.20342 213.481 7.14336 213.559 7.06404C213.637 6.98473 213.696 6.88827 213.731 6.7821C213.767 6.67592 213.778 6.56286 213.764 6.45161H214.724C214.609 7.27272 214.148 7.74193 212.995 7.74193C211.843 7.74193 211.497 7.27272 211.382 6.45161H212.266Z" fill="#23419A"/>
<path d="M31.2491 0C13.7232 0 0 8.78168 0 19.9673C0 31.1529 13.7395 40 31.2491 40C48.7587 40 62.5471 31.2183 62.5471 19.9673C62.5471 8.71627 48.8076 0 31.2491 0ZM31.2491 36.5004C13.9351 36.5004 0.342377 29.2396 0.342377 19.9673C0.342377 10.695 13.9351 3.43418 31.2491 3.43418C48.563 3.43418 62.2251 10.695 62.2251 19.9673C62.2251 29.2396 48.6323 36.5004 31.2491 36.5004Z" fill="#23419A"/>
<path d="M9.63109 16.2878L10.0713 15.1104C11.4897 11.3819 12.6146 10.4497 16.6252 10.4497C21.1085 10.4497 21.7606 11.3328 20.3423 15.1104L17.4077 22.8128C15.9404 26.6885 14.6199 27.4734 10.1691 27.4734C6.21151 27.4734 5.62051 26.7376 7.1367 22.8128L7.77253 21.0957H11.6364L10.756 23.3524C10.4136 24.2846 10.5604 24.5298 11.3918 24.5298C12.2233 24.5298 12.4678 24.2845 12.8591 23.3523L14.1308 19.9672L12.2233 19.9673L13.3482 17.0728L15.2394 17.0728L16.1687 14.5707C16.511 13.6386 16.4621 13.3933 15.6307 13.3933C14.7992 13.3933 14.4568 13.6386 14.1145 14.5708L13.4297 16.2878H9.63109Z" fill="#23419A"/>
<path d="M32.3251 15.5029L27.8417 27.2772H24.1246L27.5972 18.103H25.9669L24.1572 22.8127C23.1301 25.511 21.6139 27.4734 18.8587 27.4734C18.2361 27.4792 17.6141 27.4299 17.0001 27.3262L17.9294 24.8732H18.4185C18.8341 24.9127 19.2506 24.8074 19.598 24.5751C19.9453 24.3428 20.2024 23.9977 20.326 23.5977L23.4072 15.5028L32.3251 15.5029Z" fill="#23419A"/>
<path d="M40.493 10.646L35.9933 21.6844L43.4275 10.646H48.3674L42.0092 27.2772L38.1942 27.2772L42.5961 16.5331L35.3575 27.2772L30.3239 27.2773L36.6291 10.646H40.493Z" fill="#23419A"/>
<path d="M51.1063 19.722H52.916L54.53 15.5029H58.2471L53.7963 27.2772H50.0792L51.9378 22.3222L50.1281 22.3221L48.2207 27.2772L44.5035 27.2772L49.0032 15.5029H52.7203L51.1063 19.722Z" fill="#23419A"/>
</svg>
