<svg width="211" height="38" viewBox="0 0 211 38" fill="none" xmlns="http://www.w3.org/2000/svg">
<path d="M67.0235 24.2933V23.5133C67.0235 20.9503 67.5838 20.3931 70.9453 20.3931C74.7457 20.3931 75.5394 20.9503 75.5394 23.5133V28.7508C75.5394 31.3138 74.6057 31.871 70.9453 31.871C67.6958 31.871 67.0235 31.4252 67.0235 28.7508V27.525H70.1609V29.0851C70.1609 29.7537 70.3851 29.8651 71.0947 29.8651C71.8044 29.8651 72.0285 29.7537 72.0285 29.0851V26.8564H70.4598V24.8505H72.0285V23.179C72.0285 22.5104 71.8044 22.3989 71.0947 22.3989C70.3851 22.3989 70.1609 22.5104 70.1609 23.179V24.2933H67.0235Z" fill="white"/>
<path d="M87.9678 20.5042V31.7592H84.3821V22.4729H82.5893V27.8218C82.5893 30.2734 81.3568 31.8334 78.5555 31.8334C77.7711 31.8334 77.3229 31.722 76.7626 31.722V29.2704C77.1263 29.3749 77.506 29.4127 77.8832 29.3819C78.8169 29.3819 79.1157 28.8247 79.1157 27.8218V20.467L87.9678 20.5042Z" fill="white"/>
<path d="M96.7171 20.5042V22.5101H93.6917V24.9523H96.605V26.856H93.6917V29.7534H97.0532V31.7592H90.106V20.5042H96.7171Z" fill="white"/>
<path d="M102.32 25.3981L104.561 20.5042H108.146L105.233 25.7324L108.595 31.7592H104.897L102.32 26.6332V31.7592H98.734V20.5042H102.32V25.3981Z" fill="white"/>
<path d="M116.998 20.5042V22.5101H114.636V31.7592H111.172V22.5101H108.819V20.5042H116.998Z" fill="white"/>
<path d="M121.807 31.7592H118.334V20.5042H121.807C125.617 20.5042 127.186 20.9499 127.186 23.4015V25.6302C127.186 27.9704 125.841 28.5276 122.368 28.5276H121.807V31.7592ZM121.807 26.5217H122.592C123.376 26.5217 123.712 26.2988 123.712 25.7417V23.2901C123.712 22.6215 123.376 22.5101 122.592 22.5101H121.807V26.5217Z" fill="white"/>
<path d="M137.719 23.5133V28.7508C137.719 31.4252 136.934 31.871 133.124 31.871C129.315 31.871 128.642 31.3138 128.642 28.7508V23.5133C128.642 20.9503 129.427 20.3931 133.124 20.3931C136.822 20.3931 137.719 20.9503 137.719 23.5133ZM132.228 23.179V29.0851C132.228 29.7537 132.452 29.8651 133.162 29.8651C133.871 29.8651 134.096 29.7537 134.096 29.0851V23.179C134.096 22.5104 133.983 22.3989 133.162 22.3989C132.34 22.3989 132.228 22.5104 132.228 23.179Z" fill="white"/>
<path d="M143.209 24.8502H145.002V20.5042H148.475V31.7592H145.002V26.856H143.209V31.7592H139.745V20.5042H143.209V24.8502Z" fill="white"/>
<path d="M153.966 20.5042L153.63 27.9704L156.319 20.5042H160.465V31.7592H157.327L157.552 24.5159L154.862 31.7592H150.716V20.5042H153.966Z" fill="white"/>
<path d="M166.179 24.8502H167.972V20.5042H171.446V31.7592H167.972V26.856H166.179V31.7592H162.706V20.5042H166.179V24.8502Z" fill="white"/>
<path d="M173.687 20.5042H178.356C181.493 20.5042 182.726 20.8385 182.726 22.8443V23.8473C182.726 25.073 182.053 25.6302 180.261 25.8531C182.053 25.9645 182.838 26.6332 182.838 28.0818V29.419C182.838 31.4249 181.605 31.7592 178.58 31.7592H173.65L173.687 20.5042ZM177.161 25.0731H178.169C178.953 25.0731 179.289 24.9616 179.289 24.293V23.2901C179.289 22.6215 178.953 22.5101 178.169 22.5101H177.161V25.0731ZM177.161 29.7162H178.281C179.065 29.7162 179.402 29.6048 179.402 28.9362V27.5989C179.402 26.9303 179.065 26.8189 178.281 26.8189H177.161V29.7162Z" fill="white"/>
<path d="M191.503 20.5042V22.5101H188.366V24.9523H191.279V26.856H188.366V29.7534H191.839V31.7592H184.892V20.5042H191.503Z" fill="white"/>
<path d="M198.674 24.2933V23.179C198.674 22.5104 198.45 22.3989 197.741 22.3989C197.031 22.3989 196.956 22.5104 196.956 23.179V29.0851C196.956 29.7537 197.059 29.8651 197.741 29.8651C198.422 29.8651 198.674 29.7537 198.674 29.0851V27.525H201.802V28.7508C201.802 31.3138 201.14 31.871 197.881 31.871C194.146 31.871 193.296 31.3138 193.296 28.7508V23.5133C193.296 20.9503 194.08 20.3931 197.881 20.3931C201.252 20.3931 201.802 21.1732 201.802 23.5133V24.2933H198.674Z" fill="white"/>
<path d="M211 20.5042V22.5101H208.647V31.7592H205.173V22.5101H202.708V20.5042H211Z" fill="white"/>
<path d="M71.7297 7.80084V8.58089H68.3681V15.6013H67.2476V7.80084H71.7297Z" fill="white"/>
<path d="M75.0912 7.91224C75.7911 7.7644 76.5046 7.68972 77.2202 7.68937C78.0616 7.60561 78.9034 7.84478 79.5733 8.35798C79.8255 8.55636 80.0272 8.81113 80.1618 9.10156C80.2965 9.392 80.3604 9.70991 80.3483 10.0295C80.3566 10.3382 80.3022 10.6453 80.1883 10.9325C80.0744 11.2198 79.9033 11.4812 79.6853 11.701C78.9537 12.2708 78.0348 12.549 77.1081 12.4811H76.1744V15.6199H75.0539L75.0912 7.91224ZM76.2118 11.6268C76.5112 11.7309 76.8298 11.7689 77.1455 11.7382C78.4808 11.7382 79.2651 11.181 79.2651 10.0667C79.2651 8.95231 78.4808 8.50656 77.2576 8.50656C76.8094 8.50656 76.4732 8.61801 76.2491 8.61801L76.2118 11.6268Z" fill="white"/>
<path d="M84.3821 7.80084L86.7352 12.4811C86.8916 11.9872 87.0787 11.5033 87.2955 11.0325L88.5281 7.80084H89.7606L87.9678 11.8125C87.5606 12.836 87.0341 13.8084 86.3991 14.7098C86.1891 15.0113 85.9105 15.2593 85.586 15.4336C85.2615 15.6079 84.9002 15.7035 84.5315 15.7128C84.3013 15.7402 84.0681 15.7016 83.8593 15.6013L83.9713 14.8213H84.4195C85.3532 14.8213 85.7641 14.0412 86.1002 13.4841C86.105 13.328 86.0662 13.1737 85.9882 13.0383L83.1869 7.80084H84.3821Z" fill="white"/>
<path d="M99.1822 7.80084V15.6013H98.1738V8.58089H94.252V15.6013H93.1315V7.80084H99.1822Z" fill="white"/>
<path d="M109.715 7.80084V15.6013H108.595V8.58089H104.673V15.6013H103.552V7.80084H109.715Z" fill="white"/>
<path d="M115.42 13.1497L114.487 15.6013H113.366L116.279 7.80084H117.624L120.425 15.6013H119.305L118.371 13.1497H115.42ZM118.222 12.3697L117.288 10.0295L116.952 8.69232H116.84L116.503 10.0295L115.57 12.3697H118.222Z" fill="white"/>
<path d="M130.435 7.80084V11.2553H130.771L133.685 7.80084H134.917L131.78 11.3668C132.335 11.4093 132.863 11.6267 133.286 11.9873C133.709 12.3479 134.006 12.8331 134.133 13.3726C134.469 14.1527 134.693 14.8213 135.067 15.6013H133.946C133.62 15.0112 133.357 14.3887 133.162 13.7441C133.047 13.2251 132.743 12.7669 132.309 12.4581C131.874 12.1493 131.339 12.0119 130.809 12.0725H130.473V15.6199H129.352V7.81942L130.435 7.80084Z" fill="white"/>
<path d="M145.562 11.5896C145.607 12.1234 145.538 12.6606 145.36 13.1661C145.182 13.6716 144.898 14.1341 144.528 14.5232C144.158 14.9124 143.71 15.2194 143.212 15.4244C142.714 15.6294 142.179 15.7276 141.64 15.7127C139.399 15.7127 137.905 14.0411 137.905 11.701C137.863 11.1825 137.931 10.661 138.105 10.1703C138.278 9.67955 138.554 9.23055 138.913 8.85236C139.272 8.47418 139.707 8.17522 140.19 7.97487C140.672 7.77452 141.192 7.67724 141.715 7.68932C142.232 7.66093 142.75 7.74328 143.233 7.9308C143.715 8.11833 144.152 8.40667 144.513 8.77636C144.874 9.14604 145.151 9.58847 145.326 10.0738C145.5 10.5591 145.568 11.076 145.525 11.5896H145.562ZM138.988 11.701C138.988 13.3725 139.997 14.8212 141.678 14.8212C143.358 14.8212 144.367 13.3725 144.367 11.5896C144.367 10.0295 143.433 8.46937 141.678 8.46937C139.922 8.46937 138.988 10.0295 138.988 11.701Z" fill="white"/>
<path d="M156.543 12.1468C156.543 11.0324 156.431 9.69522 156.431 8.80373C156.095 9.73236 155.759 10.661 155.311 11.7011L153.854 15.4899H152.92L151.576 11.7753C151.239 10.661 150.903 9.65806 150.642 8.76658H150.604C150.604 9.69521 150.604 10.9953 150.492 12.2211L150.268 15.5642H149.26L149.82 7.76366H151.165L152.621 11.4782C152.957 12.4811 153.294 13.3355 153.555 14.1526C153.779 13.3726 154.115 12.4811 154.489 11.4782L155.945 7.76366H157.402L157.85 15.5642H156.767L156.543 12.1468Z" fill="white"/>
<path d="M168.084 7.80084V15.6013H166.964V8.58089H163.042V15.6013H162.034V7.80084H168.084Z" fill="white"/>
<path d="M173.799 13.1497L172.865 15.6013H171.745L174.658 7.80084H176.003L178.804 15.6013H177.683L176.75 13.1497H173.799ZM176.6 12.3697L175.816 10.0481C175.617 9.6205 175.466 9.17193 175.368 8.71089H175.256L174.882 10.0481L173.948 12.3883L176.6 12.3697Z" fill="white"/>
<path d="M183.66 7.80084V11.0325H187.805V7.80084H188.814V15.6013H187.805V11.924H183.66V15.6013H182.651V7.80084H183.66Z" fill="white"/>
<path d="M194.304 7.80084V11.0325C194.304 12.2583 194.192 13.2612 194.192 14.3755C194.631 13.5955 195.201 12.704 195.761 11.8125L198.441 7.80084H199.571V15.6199H198.562V12.2768C198.54 11.1984 198.577 10.1195 198.674 9.0452H198.562C198.164 10.0034 197.636 10.9032 196.994 11.7197L194.407 15.6199H193.296V7.81942L194.304 7.80084Z" fill="white"/>
<path d="M204.94 7.80057V11.0322C204.96 12.1477 204.923 13.2636 204.828 14.3753H204.94C205.363 13.4643 205.889 12.6044 206.509 11.8122L209.198 7.80057H210.365V15.6196H209.245V12.2766C209.245 11.0508 209.357 10.0479 209.357 9.04493C208.908 9.97356 208.348 10.8279 207.788 11.7194L205.211 15.6196H203.978V7.81915L204.94 7.80057ZM206.397 6.12903C206.397 6.46334 206.509 6.90908 207.069 6.90908C207.175 6.92275 207.283 6.91199 207.385 6.87762C207.486 6.84325 207.578 6.78619 207.654 6.71084C207.73 6.63549 207.787 6.54386 207.822 6.44299C207.856 6.34212 207.867 6.23471 207.853 6.12903H208.787C208.675 6.90908 208.227 7.35483 207.106 7.35483C205.986 7.35483 205.65 6.90908 205.538 6.12903H206.397Z" fill="white"/>
<path d="M30.3851 0C13.3438 0 0 8.3426 0 18.9689C0 29.5953 13.3596 38 30.3851 38C47.4105 38 60.8176 29.6574 60.8176 18.9689C60.8176 8.28046 47.4581 0 30.3851 0ZM30.3851 34.6754C13.5498 34.6754 0.332911 27.7776 0.332911 18.9689C0.332911 10.1603 13.5498 3.26247 30.3851 3.26247C47.2203 3.26247 60.5046 10.1603 60.5046 18.9689C60.5046 27.7776 47.2877 34.6754 30.3851 34.6754Z" fill="white"/>
<path d="M9.36479 15.4734L9.79282 14.3549C11.172 10.8128 12.2658 9.92726 16.1655 9.92726C20.5249 9.92726 21.159 10.7662 19.7798 14.3549L16.9264 21.6721C15.4997 25.3541 14.2156 26.0998 9.88793 26.0998C6.03976 26.0998 5.46511 25.4007 6.93938 21.6722L7.55762 20.0409H11.3146L10.4586 22.1848C10.1257 23.0703 10.2684 23.3033 11.0769 23.3033C11.8853 23.3033 12.1231 23.0703 12.5036 22.1847L13.7401 18.9689L11.8853 18.969L12.9791 16.2192L14.818 16.2191L15.7216 13.8422C16.0545 12.9567 16.007 12.7236 15.1985 12.7236C14.39 12.7236 14.0571 12.9567 13.7242 13.8422L13.0584 15.4734H9.36479Z" fill="white"/>
<path d="M31.4313 14.7278L27.0719 25.9133H23.4576L26.8341 17.1978H25.2489L23.4893 21.6721C22.4906 24.2355 21.0163 26.0997 18.3372 26.0997C17.7318 26.1052 17.1271 26.0585 16.5301 25.9599L17.4336 23.6296H17.9092C18.3134 23.667 18.7183 23.567 19.0561 23.3463C19.3938 23.1257 19.6438 22.7978 19.7639 22.4178L22.76 14.7277L31.4313 14.7278Z" fill="white"/>
<path d="M39.3733 10.1137L34.9981 20.6002L42.2268 10.1137H47.03L40.8476 25.9133L37.1382 25.9133L41.4183 15.7064L34.3799 25.9133L29.4854 25.9134L35.6163 10.1137H39.3733Z" fill="white"/>
<path d="M49.6932 18.7359H51.4529L53.0222 14.7278H56.6366L52.3089 25.9133H48.6945L50.5017 21.2061L48.7421 21.206L46.8874 25.9133L43.273 25.9134L47.6483 14.7278H51.2626L49.6932 18.7359Z" fill="white"/>
</svg>
