<svg width="366" height="155" viewBox="0 0 366 155" fill="none" xmlns="http://www.w3.org/2000/svg">
<path d="M509.933 183.742L494.953 198.721C494.609 198.51 494.203 198.423 493.802 198.474C493.401 198.526 493.03 198.713 492.75 199.004C492.524 199.24 492.368 199.533 492.298 199.851C492.228 200.169 492.247 200.501 492.354 200.809C492.461 201.117 492.65 201.39 492.902 201.597C493.154 201.804 493.458 201.938 493.781 201.983C494.104 202.028 494.433 201.983 494.732 201.853C495.031 201.723 495.288 201.513 495.475 201.247C495.662 200.98 495.772 200.666 495.792 200.341C495.813 200.015 495.743 199.691 495.59 199.403L510.331 184.706L577.46 184.706C577.561 185.095 577.79 185.439 578.112 185.68C578.434 185.922 578.828 186.046 579.23 186.033C579.466 186.033 579.7 185.986 579.917 185.895C580.135 185.803 580.332 185.669 580.497 185.499C580.662 185.33 580.791 185.13 580.878 184.91C580.964 184.69 581.005 184.456 580.999 184.219C580.999 183.75 580.813 183.3 580.481 182.968C580.149 182.636 579.699 182.45 579.23 182.45C578.828 182.437 578.434 182.562 578.112 182.803C577.79 183.044 577.561 183.388 577.46 183.777L509.933 183.742Z" fill="#EDF3F3"/>
<path d="M519.63 176.982C519.954 176.968 520.269 176.865 520.538 176.684C520.808 176.504 521.023 176.253 521.159 175.958C521.296 175.664 521.349 175.337 521.312 175.015C521.276 174.692 521.151 174.386 520.952 174.13C520.753 173.873 520.488 173.676 520.185 173.561C519.882 173.445 519.552 173.415 519.233 173.474C518.914 173.532 518.617 173.678 518.375 173.894C518.133 174.11 517.955 174.389 517.861 174.699L491.865 174.699L470.728 195.81L393.043 195.81C392.927 195.399 392.667 195.043 392.309 194.808C391.952 194.574 391.521 194.477 391.098 194.535C390.674 194.593 390.286 194.803 390.005 195.125C389.724 195.448 389.569 195.861 389.569 196.288C389.569 196.716 389.724 197.129 390.005 197.451C390.286 197.773 390.674 197.983 391.098 198.041C391.521 198.1 391.952 198.002 392.309 197.768C392.667 197.534 392.927 197.178 393.043 196.766L471.126 196.766L492.237 175.655L517.896 175.655C517.995 176.038 518.22 176.377 518.534 176.618C518.848 176.858 519.234 176.986 519.63 176.982Z" fill="#EDF3F3"/>
<path d="M463.083 183.016C463.407 183.002 463.72 182.899 463.989 182.718C464.258 182.538 464.473 182.287 464.609 181.993C464.745 181.699 464.798 181.373 464.762 181.051C464.726 180.729 464.602 180.423 464.404 180.167C464.206 179.91 463.942 179.713 463.639 179.597C463.337 179.48 463.008 179.449 462.69 179.507C462.371 179.564 462.074 179.708 461.831 179.923C461.588 180.138 461.409 180.415 461.314 180.725L371.604 180.725L357.66 166.78L262.616 166.78C262.499 166.369 262.238 166.014 261.88 165.781C261.523 165.547 261.093 165.451 260.67 165.51C260.246 165.568 259.859 165.778 259.578 166.1C259.298 166.422 259.143 166.835 259.143 167.262C259.143 167.689 259.298 168.102 259.578 168.424C259.859 168.747 260.246 168.956 260.67 169.015C261.093 169.074 261.523 168.978 261.88 168.744C262.238 168.511 262.499 168.156 262.616 167.745L357.288 167.745L371.206 181.689L461.349 181.689C461.448 182.072 461.672 182.411 461.987 182.652C462.301 182.893 462.687 183.021 463.083 183.016Z" fill="#EDF3F3"/>
<path d="M345.468 171.859C345.066 171.846 344.672 171.971 344.35 172.212C344.028 172.453 343.798 172.797 343.698 173.186L247.521 173.186L227.171 193.536L160.811 193.536C160.695 193.125 160.434 192.77 160.076 192.537C159.718 192.303 159.288 192.207 158.865 192.266C158.442 192.325 158.055 192.534 157.774 192.857C157.494 193.179 157.339 193.592 157.339 194.019C157.339 194.446 157.494 194.859 157.774 195.181C158.055 195.503 158.442 195.713 158.865 195.771C159.288 195.83 159.718 195.734 160.076 195.5C160.434 195.267 160.695 194.912 160.811 194.501L227.604 194.501L247.955 174.15L343.733 174.15C343.829 174.46 344.008 174.737 344.251 174.952C344.494 175.167 344.791 175.311 345.109 175.368C345.428 175.426 345.757 175.395 346.059 175.278C346.362 175.162 346.626 174.965 346.824 174.708C347.022 174.452 347.146 174.146 347.182 173.824C347.218 173.502 347.165 173.176 347.029 172.882C346.893 172.588 346.678 172.337 346.409 172.157C346.14 171.976 345.827 171.873 345.503 171.859L345.468 171.859Z" fill="#EDF3F3"/>
<path d="M233.63 159.074L299.255 159.074C299.371 159.485 299.632 159.84 299.99 160.073C300.348 160.307 300.778 160.403 301.201 160.344C301.624 160.285 302.012 160.076 302.292 159.753C302.573 159.431 302.727 159.018 302.727 158.591C302.727 158.164 302.573 157.751 302.292 157.429C302.012 157.107 301.624 156.897 301.201 156.839C300.778 156.78 300.348 156.876 299.99 157.11C299.632 157.343 299.371 157.698 299.255 158.109L233.232 158.109L210.227 181.114L138.63 181.114L124.119 166.603L48.4958 166.603C48.3804 166.192 48.1197 165.836 47.7622 165.601C47.4047 165.367 46.9743 165.27 46.5508 165.328C46.1272 165.386 45.7391 165.596 45.4581 165.918C45.1771 166.24 45.0223 166.653 45.0223 167.081C45.0223 167.509 45.1771 167.922 45.4581 168.244C45.7391 168.566 46.1272 168.776 46.5508 168.834C46.9743 168.892 47.4047 168.795 47.7622 168.561C48.1197 168.326 48.3804 167.97 48.4958 167.559L123.703 167.559L138.214 182.078L210.634 182.078L233.63 159.074Z" fill="#EDF3F3"/>
<path d="M493.83 16.3024L513.702 36.2015L571.426 36.2015C571.526 36.5908 571.756 36.9344 572.078 37.1756C572.399 37.4169 572.794 37.5414 573.196 37.5287C573.432 37.5346 573.667 37.4932 573.886 37.4069C574.106 37.3206 574.307 37.1912 574.476 37.0263C574.645 36.8614 574.779 36.6643 574.871 36.4467C574.962 36.229 575.009 35.9952 575.009 35.7591C575.009 35.5229 574.962 35.2891 574.871 35.0715C574.779 34.8539 574.645 34.6568 574.476 34.4919C574.307 34.327 574.106 34.1976 573.886 34.1113C573.667 34.025 573.432 33.9836 573.196 33.9895C572.794 33.9768 572.399 34.1013 572.078 34.3425C571.756 34.5838 571.526 34.9273 571.426 35.3167L514.1 35.3167L494.52 15.6211C494.728 15.2482 494.795 14.8124 494.707 14.3944C494.619 13.9762 494.383 13.604 494.043 13.3463C493.702 13.0886 493.279 12.9629 492.853 12.9923C492.427 13.0217 492.026 13.2043 491.724 13.5064C491.422 13.8085 491.239 14.2096 491.21 14.6358C491.18 15.062 491.306 15.4844 491.564 15.8252C491.821 16.1659 492.194 16.4019 492.612 16.4896C493.03 16.5773 493.466 16.5108 493.838 16.3024L493.83 16.3024Z" fill="#EDF3F3"/>
<path d="M392.822 20.2751C392.498 20.2896 392.185 20.3927 391.915 20.5732C391.646 20.7537 391.432 21.0045 391.296 21.2985C391.159 21.5924 391.106 21.9182 391.142 22.2402C391.179 22.5622 391.302 22.868 391.5 23.1245C391.698 23.381 391.963 23.5781 392.265 23.6945C392.568 23.8108 392.896 23.842 393.215 23.7844C393.534 23.7269 393.831 23.5829 394.074 23.3682C394.316 23.1535 394.495 22.8762 394.591 22.5668L487.318 22.5668L498.236 33.5471C498.027 33.92 497.961 34.3557 498.049 34.7738C498.136 35.1919 498.372 35.5642 498.713 35.8219C499.054 36.0796 499.476 36.2053 499.902 36.1759C500.329 36.1465 500.73 35.9638 501.032 35.6618C501.334 35.3597 501.517 34.9585 501.546 34.5324C501.575 34.1062 501.45 33.6837 501.192 33.343C500.934 33.0023 500.562 32.7663 500.144 32.6786C499.726 32.5909 499.29 32.6574 498.917 32.8658L487.716 21.6643L394.538 21.6643C394.452 21.2724 394.235 20.9215 393.923 20.6691C393.611 20.4167 393.223 20.2778 392.822 20.2751Z" fill="#EDF3F3"/>
<path d="M196.035 6.93238C195.711 6.94689 195.398 7.05001 195.129 7.23046C194.86 7.41092 194.645 7.66179 194.509 7.95574C194.373 8.24968 194.32 8.57541 194.356 8.8974C194.392 9.21939 194.516 9.5253 194.714 9.78176C194.912 10.0382 195.176 10.2354 195.479 10.3517C195.781 10.4681 196.11 10.4992 196.428 10.4417C196.747 10.3841 197.044 10.2401 197.287 10.0254C197.53 9.8107 197.709 9.53348 197.805 9.22399L293.362 9.22398L313.907 29.769L359.146 29.769L375.356 13.5595L401.794 13.5595C401.91 13.9705 402.171 14.3255 402.529 14.559C402.886 14.7926 403.316 14.8888 403.74 14.8301C404.163 14.7713 404.55 14.5615 404.831 14.2393C405.111 13.9172 405.266 13.5045 405.266 13.0773C405.266 12.6501 405.111 12.2374 404.831 11.9152C404.55 11.5931 404.163 11.3833 403.74 11.3245C403.316 11.2657 402.886 11.362 402.529 11.5955C402.171 11.8291 401.91 12.1841 401.794 12.5951L374.975 12.5951L358.766 28.8046L314.305 28.8046L293.76 8.25956L197.778 8.25957C197.672 7.87857 197.444 7.54268 197.129 7.30309C196.815 7.06349 196.43 6.93331 196.035 6.93238Z" fill="#EDF3F3"/>
<path d="M61.0863 29.5921C61.4882 29.6048 61.8825 29.4803 62.2041 29.2391C62.5257 28.9978 62.7557 28.6542 62.856 28.2649L140.523 28.2649L166.536 2.25179L211.793 2.25179C211.909 2.66278 212.171 3.01781 212.528 3.25133C212.886 3.48485 213.316 3.58112 213.739 3.52236C214.162 3.46359 214.55 3.25377 214.83 2.93161C215.111 2.60947 215.265 2.19675 215.265 1.76958C215.265 1.34242 215.111 0.929689 214.83 0.607545C214.55 0.285387 214.162 0.0755783 213.739 0.0168168C213.316 -0.0419448 212.886 0.0543077 212.528 0.287828C212.171 0.521349 211.909 0.87636 211.793 1.28736L166.138 1.28736L140.125 27.3004L62.8206 27.3004C62.7247 26.991 62.5456 26.7137 62.303 26.499C62.0603 26.2843 61.7634 26.1403 61.4446 26.0828C61.1257 26.0253 60.7971 26.0564 60.4947 26.1727C60.1924 26.2891 59.9278 26.4863 59.7297 26.7427C59.5317 26.9991 59.4078 27.3051 59.3717 27.6271C59.3356 27.9491 59.3886 28.2748 59.5249 28.5687C59.6612 28.8627 59.8757 29.1135 60.1448 29.294C60.4139 29.4745 60.7273 29.5776 61.051 29.5921L61.0863 29.5921Z" fill="#EDF3F3"/>
<path d="M571.656 44.439C571.253 44.4267 570.858 44.5525 570.536 44.7955C570.214 45.0384 569.985 45.384 569.886 45.775L506.907 45.775L476.762 75.929L408.907 75.929L388.274 96.5625C387.9 96.3557 387.463 96.2913 387.046 96.3812C386.628 96.4711 386.256 96.7093 386 97.0517C385.744 97.3941 385.621 97.8175 385.653 98.2438C385.685 98.6701 385.87 99.0704 386.175 99.3707C386.479 99.6709 386.882 99.851 387.308 99.8774C387.735 99.9039 388.157 99.775 388.496 99.5146C388.835 99.2542 389.068 98.8799 389.152 98.4608C389.237 98.0418 389.167 97.6063 388.955 97.2349L409.305 76.8846L477.16 76.8846L507.314 46.7306L569.922 46.7306C570.022 47.12 570.252 47.4635 570.574 47.7048C570.895 47.946 571.29 48.0705 571.691 48.0578C572.161 48.0578 572.611 47.8714 572.943 47.5395C573.275 47.2076 573.461 46.7575 573.461 46.2882C573.472 46.0462 573.433 45.8045 573.347 45.5781C573.261 45.3517 573.129 45.1455 572.96 44.9721C572.79 44.7988 572.587 44.662 572.363 44.5703C572.139 44.4786 571.898 44.4339 571.656 44.439Z" fill="#EDF3F3"/>
<path d="M313.553 40.4928L298.512 25.4512L183.126 25.4512L168.217 10.5424L145.407 33.3613L64.3246 33.3613C64.2092 32.9496 63.9487 32.5937 63.5911 32.3593C63.2336 32.1248 62.8032 32.0278 62.3796 32.086C61.9561 32.1443 61.568 32.3539 61.287 32.6762C61.006 32.9985 60.8512 33.4116 60.8512 33.8391C60.8512 34.2667 61.006 34.6798 61.287 35.002C61.568 35.3243 61.9561 35.534 62.3796 35.5922C62.8032 35.6505 63.2336 35.5534 63.5911 35.319C63.9487 35.0845 64.2092 34.7286 64.3246 34.3169L145.805 34.3169L168.217 11.9049L182.719 26.3803L298.096 26.3802L313.137 41.4218L383.275 41.4218L409.659 67.8065L474.17 67.8065L490.627 51.3581C491 51.5665 491.435 51.633 491.853 51.5453C492.272 51.4576 492.644 51.2216 492.901 50.8809C493.159 50.5402 493.285 50.1177 493.255 49.6915C493.226 49.2653 493.043 48.8642 492.741 48.5621C492.439 48.26 492.038 48.0774 491.612 48.048C491.186 48.0186 490.763 48.1443 490.423 48.402C490.082 48.6597 489.846 49.032 489.758 49.4501C489.67 49.8682 489.737 50.3039 489.945 50.6768L473.745 66.8775L410.04 66.8775L383.655 40.4928L313.553 40.4928Z" fill="#EDF3F3"/>
<path d="M403.554 35.5114C403.318 35.2876 403.024 35.1333 402.706 35.0654C402.388 34.9976 402.057 35.0189 401.75 35.127C401.443 35.235 401.172 35.4256 400.966 35.6779C400.76 35.9301 400.628 36.2342 400.584 36.5566C400.54 36.8791 400.586 37.2075 400.716 37.5056C400.847 37.8038 401.057 38.0602 401.324 38.2466C401.59 38.4331 401.903 38.5424 402.228 38.5624C402.553 38.5825 402.877 38.5126 403.165 38.3604L411.128 46.3236L472.258 46.3236L480.071 38.5108C480.444 38.7192 480.88 38.7857 481.298 38.698C481.716 38.6103 482.088 38.3743 482.346 38.0336C482.604 37.6929 482.729 37.2705 482.7 36.8443C482.67 36.4181 482.488 36.0169 482.186 35.7148C481.884 35.4128 481.483 35.2302 481.056 35.2008C480.63 35.1713 480.208 35.2971 479.867 35.5548C479.526 35.8125 479.29 36.1847 479.203 36.6028C479.115 37.0209 479.181 37.4566 479.39 37.8295L471.86 45.3592L411.562 45.3592L403.846 37.6437C404.039 37.3056 404.114 36.9135 404.062 36.528C404.009 36.1426 403.831 35.7852 403.554 35.5114Z" fill="#EDF3F3"/>
<path d="M346.14 147.2L374.038 175.115L465.658 175.115L475.461 165.294L571.24 165.294C571.34 165.683 571.57 166.027 571.892 166.268C572.214 166.509 572.608 166.634 573.01 166.621C573.479 166.621 573.929 166.434 574.261 166.103C574.593 165.771 574.779 165.321 574.779 164.851C574.779 164.382 574.593 163.932 574.261 163.6C573.929 163.268 573.479 163.082 573.01 163.082C572.608 163.069 572.214 163.193 571.892 163.435C571.57 163.676 571.34 164.019 571.24 164.409L475.054 164.409L465.26 174.133L374.436 174.133L346.538 146.235L224.003 146.235L202.237 167.992C201.896 167.791 201.496 167.71 201.103 167.763C200.71 167.816 200.346 168 200.07 168.284C199.846 168.521 199.692 168.814 199.624 169.132C199.556 169.451 199.577 169.782 199.685 170.089C199.793 170.396 199.984 170.667 200.236 170.873C200.488 171.078 200.792 171.21 201.115 171.254C201.437 171.298 201.766 171.253 202.064 171.122C202.362 170.992 202.618 170.782 202.805 170.515C202.991 170.248 203.101 169.935 203.121 169.61C203.141 169.285 203.071 168.961 202.919 168.674L224.401 147.2L346.14 147.2Z" fill="#EDF3F3"/>
<path d="M486.185 144.545C486.423 144.768 486.717 144.921 487.036 144.987C487.355 145.053 487.686 145.03 487.992 144.92C488.299 144.81 488.569 144.618 488.773 144.365C488.978 144.111 489.108 143.806 489.15 143.483C489.192 143.16 489.144 142.832 489.012 142.534C488.88 142.237 488.668 141.982 488.4 141.797C488.131 141.612 487.817 141.505 487.492 141.487C487.167 141.469 486.843 141.542 486.557 141.696L480.443 135.582L384.213 135.582L368.808 150.995L362.518 150.995C362.402 150.584 362.142 150.228 361.784 149.993C361.426 149.759 360.996 149.662 360.573 149.72C360.149 149.778 359.761 149.988 359.48 150.31C359.199 150.632 359.044 151.046 359.044 151.473C359.044 151.901 359.199 152.314 359.48 152.636C359.761 152.958 360.149 153.168 360.573 153.226C360.996 153.284 361.426 153.187 361.784 152.953C362.142 152.719 362.402 152.363 362.518 151.951L369.207 151.951L384.611 136.547L480.062 136.547L485.893 142.377C485.692 142.719 485.611 143.119 485.664 143.512C485.717 143.905 485.9 144.269 486.185 144.545Z" fill="#EDF3F3"/>
<path d="M475.815 149.27L482.602 156.056L548.244 156.056C548.345 156.446 548.575 156.789 548.896 157.03C549.218 157.272 549.612 157.396 550.014 157.384C550.495 157.384 550.956 157.192 551.297 156.852C551.637 156.512 551.828 156.051 551.828 155.57C551.828 155.334 551.781 155.1 551.689 154.882C551.597 154.664 551.463 154.467 551.294 154.302C551.125 154.138 550.925 154.008 550.705 153.922C550.485 153.836 550.25 153.794 550.014 153.8C549.612 153.787 549.218 153.912 548.896 154.153C548.575 154.394 548.345 154.738 548.244 155.127L483.017 155.127L476.24 148.341L394.414 148.341L386.035 156.72C385.662 156.512 385.227 156.445 384.809 156.533C384.391 156.62 384.018 156.856 383.761 157.197C383.503 157.538 383.377 157.96 383.407 158.387C383.436 158.813 383.619 159.214 383.921 159.516C384.223 159.818 384.624 160.001 385.05 160.03C385.476 160.059 385.899 159.934 386.239 159.676C386.58 159.418 386.816 159.046 386.904 158.628C386.992 158.21 386.925 157.774 386.717 157.401L394.812 149.305L475.815 149.27Z" fill="#EDF3F3"/>
<path d="M506.818 141.439C507.163 141.78 507.629 141.969 508.114 141.966C508.598 141.962 509.062 141.767 509.402 141.422C509.742 141.077 509.932 140.611 509.928 140.126C509.925 139.642 509.729 139.178 509.384 138.838C509.107 138.555 508.742 138.373 508.349 138.322C507.956 138.27 507.557 138.353 507.217 138.555L482.717 114.064L372.905 114.064L352.794 134.166C352.421 133.958 351.985 133.892 351.567 133.979C351.149 134.067 350.777 134.303 350.519 134.644C350.261 134.984 350.136 135.407 350.165 135.833C350.194 136.259 350.377 136.66 350.679 136.962C350.981 137.264 351.382 137.447 351.808 137.477C352.235 137.506 352.657 137.38 352.998 137.122C353.338 136.865 353.574 136.493 353.662 136.074C353.75 135.656 353.683 135.221 353.475 134.848L373.303 115.055L482.319 115.055L506.535 139.272C506.333 139.613 506.251 140.011 506.302 140.405C506.353 140.798 506.535 141.162 506.818 141.439Z" fill="#EDF3F3"/>
<path d="M144.213 172.788C144.614 172.801 145.009 172.676 145.33 172.435C145.652 172.194 145.882 171.85 145.982 171.461L184.586 171.461L214.978 141.068L358.315 141.068L376.135 123.257L478.647 123.257L501.262 145.872L565.772 145.872C565.872 146.262 566.102 146.605 566.424 146.846C566.746 147.088 567.14 147.212 567.542 147.199C567.778 147.205 568.013 147.164 568.233 147.078C568.452 146.991 568.653 146.862 568.822 146.697C568.991 146.532 569.125 146.335 569.217 146.117C569.308 145.9 569.356 145.666 569.356 145.43C569.344 144.957 569.148 144.506 568.809 144.176C568.47 143.845 568.015 143.66 567.542 143.66C567.139 143.648 566.744 143.774 566.422 144.017C566.1 144.26 565.871 144.605 565.772 144.996L501.66 144.996L479.045 122.292L375.736 122.292L357.925 140.103L214.589 140.103L184.196 170.496L145.911 170.496C145.816 170.187 145.637 169.91 145.394 169.695C145.151 169.48 144.854 169.336 144.535 169.279C144.217 169.221 143.888 169.252 143.586 169.369C143.283 169.485 143.019 169.682 142.821 169.939C142.623 170.195 142.499 170.501 142.463 170.823C142.427 171.145 142.479 171.471 142.616 171.765C142.752 172.058 142.967 172.309 143.236 172.49C143.505 172.67 143.818 172.773 144.142 172.788L144.213 172.788Z" fill="#EDF3F3"/>
<path d="M399.387 74.1417C399.623 74.367 399.916 74.5228 400.235 74.5919C400.553 74.661 400.885 74.6407 401.193 74.5332C401.501 74.4257 401.773 74.2353 401.979 73.9829C402.186 73.7305 402.319 73.4259 402.363 73.1028C402.407 72.7797 402.361 72.4507 402.23 72.152C402.099 71.8534 401.889 71.5967 401.621 71.4103C401.353 71.224 401.039 71.1152 400.714 71.096C400.388 71.0768 400.064 71.1479 399.776 71.3015L381.196 52.7207L292.044 52.7207L259.253 85.5202L191.744 85.5202C191.627 85.1092 191.366 84.7542 191.009 84.5207C190.651 84.2872 190.221 84.1909 189.798 84.2496C189.375 84.3084 188.987 84.5182 188.707 84.8404C188.426 85.1625 188.272 85.5753 188.272 86.0024C188.272 86.4296 188.426 86.8423 188.707 87.1645C188.987 87.4866 189.375 87.6964 189.798 87.7552C190.221 87.814 190.651 87.7177 191.009 87.4842C191.366 87.2506 191.627 86.8956 191.744 86.4846L259.652 86.4846L292.442 53.6851L380.824 53.6851L399.095 71.9651C398.891 72.3077 398.809 72.7091 398.862 73.1041C398.915 73.4992 399.1 73.8648 399.387 74.1417Z" fill="#EDF3F3"/>
<path d="M478.125 106.862C478.241 107.273 478.502 107.628 478.86 107.861C479.217 108.095 479.648 108.191 480.071 108.132C480.494 108.073 480.881 107.864 481.162 107.541C481.442 107.219 481.597 106.806 481.597 106.379C481.597 105.952 481.442 105.539 481.162 105.217C480.881 104.895 480.494 104.685 480.071 104.627C479.648 104.568 479.217 104.664 478.86 104.898C478.502 105.131 478.241 105.486 478.125 105.897L401.97 105.897L417.543 90.2804C417.916 90.4888 418.351 90.5553 418.77 90.4676C419.188 90.3799 419.56 90.1439 419.818 89.8032C420.075 89.4625 420.201 89.04 420.172 88.6139C420.142 88.1877 419.96 87.7865 419.657 87.4844C419.355 87.1824 418.954 86.9998 418.528 86.9703C418.102 86.9409 417.679 87.0667 417.339 87.3244C416.998 87.5821 416.762 87.9543 416.674 88.3724C416.587 88.7905 416.653 89.2262 416.862 89.5991L399.608 106.862L478.125 106.862Z" fill="#EDF3F3"/>
<path d="M362.96 104.481L389.76 77.6809L375.002 62.9224L295.441 62.9224L263.881 94.4832C263.508 94.2748 263.072 94.2083 262.654 94.296C262.236 94.3837 261.864 94.6197 261.606 94.9604C261.348 95.3012 261.223 95.7236 261.252 96.1498C261.282 96.576 261.464 96.9771 261.766 97.2792C262.068 97.5813 262.469 97.7639 262.896 97.7933C263.322 97.8227 263.744 97.697 264.085 97.4393C264.426 97.1816 264.662 96.8093 264.749 96.3912C264.837 95.9731 264.771 95.5374 264.562 95.1645L295.84 63.8869L374.586 63.8869L388.38 77.6809L360.615 105.446L390.548 105.446L404.271 91.6961C404.653 91.9179 405.102 91.9935 405.536 91.9089C405.969 91.8243 406.357 91.5853 406.627 91.2362C406.898 90.8871 407.032 90.4517 407.006 90.0109C406.979 89.5701 406.794 89.1539 406.484 88.8396C406.173 88.5253 405.76 88.3343 405.319 88.3022C404.879 88.27 404.442 88.3988 404.089 88.6646C403.737 88.9304 403.492 89.3152 403.402 89.7475C403.312 90.1798 403.382 90.6301 403.598 91.0148L390.114 104.481L362.96 104.481Z" fill="#EDF3F3"/>
<path d="M428.107 94.0231C428.076 93.7907 427.999 93.5668 427.881 93.3641C427.763 93.1614 427.607 92.9839 427.42 92.8418C427.234 92.6996 427.021 92.5956 426.794 92.5357C426.567 92.4757 426.331 92.461 426.099 92.4924C425.866 92.5238 425.642 92.6006 425.44 92.7185C425.237 92.8364 425.06 92.9931 424.917 93.1796C424.775 93.3661 424.671 93.5788 424.611 93.8055C424.551 94.0322 424.537 94.2685 424.568 94.5009C424.504 94.9702 424.628 95.446 424.914 95.8235C425.201 96.201 425.625 96.4493 426.094 96.5138C426.564 96.5783 427.039 96.4538 427.417 96.1676C427.794 95.8813 428.043 95.4569 428.107 94.9875L478.647 94.9875L515.401 131.76L560.118 131.76C560.219 132.149 560.449 132.493 560.77 132.734C561.092 132.975 561.486 133.1 561.888 133.087C562.354 133.076 562.797 132.886 563.127 132.556C563.456 132.227 563.646 131.783 563.658 131.317C563.658 130.848 563.471 130.398 563.139 130.066C562.807 129.734 562.357 129.548 561.888 129.548C561.486 129.535 561.092 129.66 560.77 129.901C560.449 130.142 560.219 130.486 560.118 130.875L515.755 130.875L479.001 94.1204L428.107 94.0231Z" fill="#EDF3F3"/>
<path d="M569.727 58.7904C569.833 59.1748 570.065 59.5124 570.386 59.7484C570.707 59.9845 571.098 60.1052 571.497 60.0911C571.966 60.091 572.416 59.9046 572.748 59.5728C573.08 59.2409 573.266 58.7908 573.266 58.3215C573.266 57.8521 573.08 57.402 572.748 57.0702C572.416 56.7383 571.966 56.5519 571.497 56.5519C571.095 56.5391 570.701 56.6637 570.379 56.9049C570.057 57.1461 569.827 57.4897 569.727 57.8791L504.66 57.8791L483.557 78.9727C483.184 78.7642 482.749 78.6977 482.331 78.7854C481.912 78.8732 481.54 79.1092 481.282 79.4499C481.025 79.7906 480.899 80.213 480.928 80.6392C480.958 81.0654 481.14 81.4666 481.443 81.7686C481.745 82.0707 482.146 82.2533 482.572 82.2827C482.998 82.3122 483.421 82.1864 483.761 81.9287C484.102 81.671 484.338 81.2988 484.426 80.8807C484.513 80.4626 484.447 80.0269 484.238 79.654L505.058 58.7904L569.727 58.7904Z" fill="#EDF3F3"/>
<path d="M344.185 129.76L356.236 117.709C356.608 117.918 357.044 117.984 357.462 117.896C357.88 117.809 358.253 117.573 358.51 117.232C358.768 116.891 358.894 116.469 358.864 116.043C358.835 115.616 358.652 115.215 358.35 114.913C358.048 114.611 357.647 114.429 357.221 114.399C356.795 114.37 356.372 114.495 356.031 114.753C355.691 115.011 355.455 115.383 355.367 115.801C355.279 116.219 355.346 116.655 355.554 117.028L343.786 128.796L206.077 128.796L193.885 140.988C193.512 140.78 193.076 140.713 192.658 140.801C192.24 140.889 191.868 141.125 191.61 141.465C191.352 141.806 191.227 142.229 191.256 142.655C191.286 143.081 191.468 143.482 191.77 143.784C192.072 144.086 192.473 144.269 192.9 144.298C193.326 144.328 193.748 144.202 194.089 143.944C194.43 143.687 194.666 143.314 194.753 142.896C194.841 142.478 194.775 142.042 194.566 141.67L206.493 129.76L344.185 129.76Z" fill="#EDF3F3"/>
<path d="M215.456 107.251C215.132 107.265 214.819 107.369 214.55 107.549C214.281 107.729 214.066 107.98 213.93 108.274C213.794 108.568 213.741 108.894 213.777 109.216C213.813 109.538 213.937 109.844 214.135 110.1C214.333 110.357 214.598 110.554 214.9 110.67C215.202 110.787 215.531 110.818 215.85 110.76C216.169 110.703 216.466 110.559 216.708 110.344C216.951 110.129 217.13 109.852 217.226 109.542L278.17 109.542L294.707 93.0056L363.181 93.0056L343.043 113.179C342.67 112.971 342.235 112.904 341.817 112.992C341.398 113.079 341.026 113.315 340.769 113.656C340.511 113.997 340.385 114.419 340.414 114.846C340.444 115.272 340.627 115.673 340.929 115.975C341.231 116.277 341.632 116.46 342.058 116.489C342.484 116.519 342.907 116.393 343.247 116.135C343.588 115.877 343.824 115.505 343.912 115.087C343.999 114.669 343.933 114.233 343.725 113.86L365.499 92.0765L294.309 92.0766L277.746 108.578L217.164 108.578C217.066 108.199 216.845 107.863 216.536 107.623C216.227 107.383 215.847 107.252 215.456 107.251Z" fill="#EDF3F3"/>
<path d="M367.817 75.1946L372.516 79.8929C372.307 80.2658 372.241 80.7015 372.328 81.1196C372.416 81.5377 372.652 81.91 372.993 82.1677C373.334 82.4253 373.756 82.5511 374.182 82.5217C374.608 82.4922 375.01 82.3096 375.312 82.0076C375.614 81.7055 375.796 81.3043 375.826 80.8781C375.855 80.452 375.729 80.0295 375.472 79.6888C375.214 79.3481 374.842 79.1121 374.424 79.0244C374.006 78.9367 373.57 79.0032 373.197 79.2116L368.216 74.2302L297.131 74.2302L278.011 93.3507C277.669 93.1493 277.27 93.0687 276.877 93.1216C276.484 93.1746 276.12 93.3581 275.843 93.6427C275.619 93.879 275.465 94.1724 275.397 94.4907C275.33 94.8091 275.351 95.1399 275.459 95.4469C275.567 95.7539 275.758 96.0252 276.01 96.2309C276.262 96.4366 276.566 96.5687 276.889 96.6128C277.211 96.6568 277.539 96.6111 277.838 96.4806C278.136 96.3502 278.392 96.14 278.579 95.8732C278.765 95.6064 278.874 95.2934 278.894 94.9686C278.914 94.6437 278.844 94.3197 278.692 94.032L297.529 75.1946L367.817 75.1946Z" fill="#EDF3F3"/>
<path d="M155.131 157.286L128.985 157.286C128.87 156.875 128.609 156.519 128.252 156.284C127.894 156.05 127.464 155.953 127.04 156.011C126.617 156.069 126.229 156.279 125.948 156.601C125.667 156.923 125.512 157.336 125.512 157.764C125.512 158.192 125.667 158.605 125.948 158.927C126.229 159.249 126.617 159.459 127.04 159.517C127.464 159.575 127.894 159.478 128.252 159.244C128.609 159.009 128.87 158.653 128.985 158.242L155.529 158.242L195.752 118.028L287.213 118.028L300.927 104.331L339.433 104.331L326.639 117.116C326.351 116.965 326.027 116.897 325.702 116.918C325.377 116.939 325.065 117.049 324.799 117.237C324.533 117.424 324.323 117.681 324.194 117.979C324.065 118.278 324.02 118.606 324.065 118.928C324.11 119.251 324.243 119.554 324.449 119.806C324.656 120.057 324.927 120.247 325.235 120.354C325.542 120.462 325.873 120.482 326.191 120.413C326.509 120.345 326.802 120.19 327.037 119.965C327.321 119.684 327.5 119.314 327.547 118.917C327.593 118.521 327.504 118.12 327.294 117.78L341.725 103.349L300.502 103.349L286.788 117.063L195.354 117.063L155.131 157.286Z" fill="#EDF3F3"/>
<path d="M90.488 42.5898C90.8899 42.6025 91.2841 42.478 91.6057 42.2367C91.9274 41.9955 92.1573 41.6519 92.2576 41.2626L146.584 41.2626L158.431 29.3886L176.693 29.3886L184.612 37.3075L294.875 37.3075L302.785 45.2264L318.667 45.2264C318.784 45.6374 319.045 45.9925 319.402 46.226C319.76 46.4595 320.19 46.5558 320.613 46.497C321.036 46.4383 321.424 46.2284 321.704 45.9063C321.985 45.5841 322.139 45.1714 322.139 44.7442C322.139 44.3171 321.985 43.9043 321.704 43.5822C321.424 43.26 321.036 43.0502 320.613 42.9915C320.19 42.9327 319.76 43.029 319.402 43.2625C319.045 43.496 318.784 43.851 318.667 44.262L303.183 44.262L295.273 36.2988L185.01 36.2988L177.092 28.3799L158.033 28.3799L146.159 40.2627L92.2311 40.2628C92.1367 39.9523 91.9587 39.6737 91.7166 39.4576C91.4745 39.2414 91.1777 39.096 90.8586 39.0372C90.5394 38.9785 90.2102 39.0086 89.907 39.1243C89.6038 39.2401 89.3383 39.4369 89.1395 39.6934C88.9406 39.9499 88.8162 40.2561 88.7797 40.5786C88.7432 40.9011 88.7961 41.2274 88.9326 41.5218C89.069 41.8162 89.2839 42.0675 89.5535 42.248C89.8232 42.4286 90.1373 42.5315 90.4615 42.5455L90.488 42.5898Z" fill="#EDF3F3"/>
<path d="M507.137 103.836C506.902 103.61 506.609 103.453 506.29 103.383C505.972 103.313 505.641 103.333 505.332 103.439C505.024 103.546 504.752 103.736 504.545 103.987C504.337 104.239 504.204 104.543 504.159 104.866C504.113 105.189 504.158 105.518 504.288 105.817C504.418 106.116 504.628 106.373 504.895 106.56C505.162 106.748 505.475 106.857 505.801 106.878C506.126 106.898 506.451 106.828 506.739 106.676L521.904 121.841L560.968 121.841C561.068 122.231 561.298 122.574 561.62 122.815C561.941 123.057 562.335 123.181 562.737 123.168C562.973 123.174 563.208 123.133 563.428 123.047C563.648 122.96 563.848 122.831 564.017 122.666C564.186 122.501 564.321 122.304 564.412 122.086C564.504 121.869 564.551 121.635 564.551 121.399C564.54 120.925 564.343 120.475 564.004 120.145C563.666 119.814 563.211 119.629 562.737 119.629C562.335 119.616 561.941 119.741 561.62 119.982C561.298 120.223 561.068 120.567 560.968 120.956L522.302 120.956L507.42 106.083C507.643 105.734 507.737 105.319 507.685 104.908C507.633 104.497 507.439 104.118 507.137 103.836Z" fill="#EDF3F3"/>
<path d="M572.603 70.0716C572.203 70.0667 571.812 70.1942 571.492 70.4342C571.172 70.6743 570.94 71.0134 570.833 71.3988L514.87 71.3988L500.138 86.1041L464.862 86.1041C464.745 85.6931 464.484 85.3381 464.126 85.1046C463.769 84.8711 463.339 84.7748 462.916 84.8336C462.492 84.8923 462.105 85.1022 461.824 85.4243C461.544 85.7465 461.389 86.1592 461.389 86.5864C461.389 87.0135 461.544 87.4263 461.824 87.7484C462.105 88.0706 462.492 88.2804 462.916 88.3391C463.339 88.3979 463.769 88.3016 464.126 88.0681C464.484 87.8346 464.745 87.4796 464.862 87.0686L500.536 87.0686L515.233 72.3632L570.86 72.3632C570.96 72.7525 571.19 73.0961 571.512 73.3374C571.833 73.5786 572.227 73.7031 572.629 73.6904C573.099 73.6904 573.549 73.504 573.881 73.1721C574.212 72.8402 574.399 72.3901 574.399 71.9208C574.404 71.6811 574.361 71.4429 574.273 71.2199C574.185 70.9969 574.054 70.7935 573.887 70.6216C573.719 70.4496 573.52 70.3125 573.3 70.2181C573.079 70.1237 572.842 70.0739 572.603 70.0716Z" fill="#EDF3F3"/>
<path d="M572.036 95.1822C572.502 95.171 572.946 94.9809 573.275 94.6514C573.605 94.322 573.795 93.8784 573.806 93.4126C573.806 92.9433 573.62 92.4932 573.288 92.1613C572.956 91.8294 572.506 91.643 572.036 91.643C571.636 91.6381 571.246 91.7656 570.926 92.0056C570.606 92.2457 570.374 92.5848 570.267 92.9702L530.106 92.9702L520.312 102.765C519.939 102.556 519.503 102.49 519.085 102.578C518.667 102.665 518.294 102.901 518.037 103.242C517.779 103.583 517.653 104.005 517.683 104.431C517.712 104.858 517.895 105.259 518.197 105.561C518.499 105.863 518.9 106.046 519.326 106.075C519.752 106.104 520.175 105.979 520.516 105.721C520.856 105.463 521.092 105.091 521.18 104.673C521.268 104.255 521.201 103.819 520.993 103.446L530.504 93.855L570.32 93.855C570.425 94.2317 570.649 94.5644 570.958 94.8035C571.267 95.0427 571.646 95.1755 572.036 95.1822Z" fill="#EDF3F3"/>
<path d="M565.25 80.2556C564.848 80.2429 564.454 80.3674 564.132 80.6087C563.811 80.8499 563.581 81.1935 563.481 81.5828L525.01 81.5828L510.313 96.2793L492.573 96.2793C492.457 95.8683 492.196 95.5133 491.838 95.2798C491.48 95.0463 491.05 94.95 490.627 95.0088C490.204 95.0675 489.817 95.2774 489.536 95.5995C489.256 95.9217 489.101 96.3344 489.101 96.7616C489.101 97.1887 489.256 97.6014 489.536 97.9236C489.817 98.2458 490.204 98.4556 490.627 98.5143C491.05 98.5731 491.48 98.4768 491.838 98.2433C492.196 98.0098 492.457 97.6548 492.573 97.2438L510.712 97.2438L525.417 82.5473L563.534 82.5473C563.641 82.9327 563.873 83.2718 564.193 83.5118C564.513 83.7519 564.903 83.8794 565.303 83.8745C565.773 83.8745 566.223 83.688 566.554 83.3562C566.886 83.0243 567.073 82.5742 567.073 82.1049C567.084 81.8613 567.045 81.6181 566.957 81.3905C566.87 81.1629 566.736 80.9558 566.565 80.7822C566.394 80.6085 566.189 80.4721 565.963 80.3815C565.736 80.2909 565.494 80.2481 565.25 80.2556Z" fill="#EDF3F3"/>
<path d="M188.381 63.2056C188.318 62.7363 188.071 62.3113 187.694 62.0242C187.318 61.7372 186.842 61.6115 186.373 61.6749C185.904 61.7382 185.479 61.9854 185.192 62.3621C184.905 62.7388 184.779 63.214 184.842 63.6834C184.81 63.9158 184.824 64.1521 184.884 64.3791C184.943 64.606 185.047 64.819 185.189 65.0059C185.33 65.1929 185.507 65.35 185.71 65.4685C185.912 65.5869 186.136 65.6643 186.369 65.6963C186.601 65.7282 186.837 65.7141 187.064 65.6547C187.291 65.5953 187.504 65.4918 187.691 65.35C187.878 65.2083 188.035 65.0311 188.154 64.8287C188.272 64.6262 188.35 64.4024 188.381 64.17L259.368 64.17L279.834 43.6958L242.672 43.6958C242.556 43.2848 242.295 42.9297 241.937 42.6962C241.58 42.4627 241.149 42.3664 240.726 42.4252C240.303 42.484 239.916 42.6938 239.635 43.0159C239.355 43.3381 239.2 43.7508 239.2 44.178C239.2 44.6051 239.355 45.0179 239.635 45.34C239.916 45.6622 240.303 45.872 240.726 45.9308C241.149 45.9895 241.58 45.8932 241.937 45.6597C242.295 45.4262 242.556 45.0712 242.672 44.6602L277.516 44.6602L258.935 63.241L188.381 63.2056Z" fill="#EDF3F3"/>
<path d="M155.326 59.2063L97.531 59.2063L75.0483 81.689L39.0727 81.689C39.0094 81.2197 38.7621 80.7948 38.3855 80.5077C38.0088 80.2207 37.5336 80.095 37.0643 80.1583C36.5949 80.2217 36.17 80.4689 35.883 80.8456C35.5959 81.2222 35.4702 81.6975 35.5336 82.1668C35.469 82.6361 35.5936 83.1119 35.8798 83.4894C36.1661 83.8669 36.5905 84.1152 37.0598 84.1798C37.5292 84.2443 38.0049 84.1197 38.3824 83.8335C38.7599 83.5473 39.0082 83.1228 39.0727 82.6535L75.4553 82.6535L97.9291 60.1707L154.927 60.1707L173.34 78.5834L254.555 78.5834L269.72 63.4179C270.095 63.6247 270.531 63.6891 270.949 63.5992C271.367 63.5093 271.738 63.2711 271.994 62.9287C272.25 62.5863 272.373 62.1629 272.341 61.7366C272.309 61.3103 272.124 60.91 271.82 60.6098C271.515 60.3095 271.113 60.1295 270.686 60.103C270.259 60.0765 269.838 60.2054 269.499 60.4658C269.16 60.7262 268.926 61.1005 268.842 61.5196C268.757 61.9386 268.828 62.3741 269.039 62.7455L254.157 77.6189L173.703 77.6189L155.326 59.2063Z" fill="#EDF3F3"/>
<path d="M120.5 127.097C120.384 126.686 120.123 126.331 119.765 126.097C119.407 125.864 118.977 125.768 118.554 125.826C118.131 125.885 117.744 126.095 117.463 126.417C117.183 126.739 117.028 127.152 117.028 127.579C117.028 128.006 117.183 128.419 117.463 128.741C117.744 129.063 118.131 129.273 118.554 129.332C118.977 129.391 119.407 129.294 119.765 129.061C120.123 128.827 120.384 128.472 120.5 128.061L151.362 128.061L180.48 98.9426L244.592 98.9426C244.709 99.3536 244.97 99.7086 245.328 99.9421C245.685 100.176 246.115 100.272 246.538 100.213C246.962 100.154 247.349 99.9446 247.63 99.6224C247.91 99.3003 248.065 98.8875 248.065 98.4604C248.065 98.0332 247.91 97.6205 247.63 97.2983C247.349 96.9762 246.962 96.7664 246.538 96.7076C246.115 96.6489 245.685 96.7451 245.328 96.9787C244.97 97.2122 244.709 97.5672 244.592 97.9782L180.082 97.9782L150.964 127.097L120.5 127.097Z" fill="#EDF3F3"/>
<path d="M92.0188 129.335L109.971 147.288L152.494 147.288L179.817 119.965C180.195 120.253 180.671 120.378 181.141 120.315C181.612 120.251 182.038 120.003 182.325 119.625C182.613 119.247 182.738 118.77 182.674 118.3C182.61 117.83 182.362 117.404 181.984 117.116C181.642 116.78 181.181 116.592 180.701 116.592C180.222 116.592 179.761 116.78 179.419 117.116C179.135 117.394 178.954 117.758 178.902 118.151C178.851 118.544 178.933 118.943 179.135 119.284L152.105 146.324L110.378 146.324L92.4257 128.371L20.9788 128.371C20.8624 127.96 20.6012 127.605 20.2435 127.372C19.8859 127.138 19.4558 127.042 19.0327 127.1C18.6096 127.159 18.222 127.369 17.9415 127.691C17.661 128.013 17.5065 128.426 17.5065 128.853C17.5065 129.28 17.661 129.693 17.9415 130.015C18.222 130.337 18.6096 130.547 19.0327 130.606C19.4558 130.665 19.8859 130.569 20.2435 130.335C20.6012 130.101 20.8624 129.746 20.9788 129.335L92.0188 129.335Z" fill="#EDF3F3"/>
<path d="M15.8469 62.949C16.2469 62.9539 16.6374 62.8264 16.9574 62.5864C17.2775 62.3463 17.5092 62.0072 17.6165 61.6218L66.2801 61.6218L80.9677 46.9164L170.473 46.9164L176.667 53.11L240.637 53.11C240.701 53.5793 240.948 54.0043 241.325 54.2913C241.701 54.5784 242.177 54.7041 242.646 54.6407C243.115 54.5774 243.54 54.3302 243.827 53.9535C244.114 53.5768 244.24 53.1016 244.177 52.6322C244.24 52.1629 244.114 51.6876 243.827 51.311C243.54 50.9343 243.115 50.6871 242.646 50.6237C242.177 50.5604 241.701 50.686 241.325 50.9731C240.948 51.2602 240.701 51.6851 240.637 52.1544L177.092 52.1544L170.898 45.9609L80.5695 45.9609L65.8643 60.6574L17.6165 60.6574C17.5206 60.3479 17.3416 60.0707 17.0989 59.8559C16.8563 59.6412 16.5593 59.4972 16.2405 59.4397C15.9216 59.3822 15.5931 59.4133 15.2907 59.5297C14.9883 59.646 14.7237 59.8432 14.5256 60.0996C14.3276 60.3561 14.2038 60.662 14.1677 60.984C14.1316 61.306 14.1846 61.6317 14.3208 61.9256C14.4571 62.2196 14.6716 62.4704 14.9407 62.6509C15.2098 62.8314 15.5232 62.9345 15.8469 62.949Z" fill="#EDF3F3"/>
<path d="M1.69024 99.9867C2.09209 99.9994 2.48632 99.8749 2.80797 99.6336C3.12963 99.3924 3.35949 99.0488 3.45983 98.6595L80.1183 98.6595L106.981 71.797L151.22 71.797L169.403 89.9796L147.964 111.409C147.582 111.188 147.133 111.112 146.7 111.197C146.266 111.281 145.878 111.52 145.608 111.869C145.337 112.218 145.203 112.654 145.229 113.095C145.256 113.535 145.441 113.952 145.751 114.266C146.062 114.58 146.475 114.771 146.916 114.803C147.356 114.836 147.793 114.707 148.146 114.441C148.499 114.175 148.743 113.79 148.833 113.358C148.923 112.926 148.853 112.475 148.637 112.091L170.756 89.9707L151.61 70.8326L106.538 70.8326L79.6847 97.6862L3.45983 97.6862C3.36394 97.3767 3.18493 97.0995 2.94225 96.8848C2.69964 96.6701 2.40264 96.5261 2.08379 96.4685C1.76494 96.411 1.43639 96.4421 1.13402 96.5585C0.831595 96.6748 0.567007 96.872 0.368948 97.1285C0.17095 97.3849 0.04711 97.6908 0.0109772 98.0128C-0.0250945 98.3348 0.027823 98.6605 0.164115 98.9545C0.300467 99.2484 0.514884 99.4993 0.783988 99.6798C1.05309 99.8602 1.36657 99.9633 1.69024 99.9778L1.69024 99.9867Z" fill="#EDF3F3"/>
<path d="M56.282 104.57C55.9583 104.584 55.6448 104.688 55.3757 104.868C55.1066 105.048 54.8922 105.299 54.7559 105.593C54.6196 105.887 54.5666 106.213 54.6027 106.535C54.6388 106.857 54.7626 107.163 54.9606 107.419C55.1587 107.676 55.4233 107.873 55.7258 107.989C56.0281 108.106 56.3566 108.137 56.6755 108.079C56.9943 108.022 57.2913 107.878 57.5339 107.663C57.7766 107.448 57.9557 107.171 58.0516 106.862L130.162 106.862L143.346 93.7135C143.718 93.9219 144.154 93.9884 144.572 93.9007C144.99 93.813 145.363 93.577 145.62 93.2362C145.878 92.8955 146.004 92.4731 145.974 92.0469C145.945 91.6207 145.762 91.2196 145.46 90.9175C145.158 90.6154 144.757 90.4328 144.331 90.4034C143.905 90.374 143.482 90.4997 143.142 90.7574C142.801 91.0151 142.565 91.3873 142.477 91.8054C142.389 92.2235 142.456 92.6592 142.664 93.0322L129.764 105.933L58.0161 105.933C57.924 105.543 57.7023 105.196 57.3873 104.948C57.0723 104.701 56.6826 104.567 56.282 104.57Z" fill="#EDF3F3"/>
<path d="M113.926 82.1491L105.547 90.5282C105.206 90.3257 104.807 90.2436 104.414 90.295C104.021 90.3463 103.657 90.5281 103.379 90.8113C103.156 91.0476 103.001 91.3411 102.934 91.6594C102.866 91.9777 102.887 92.3086 102.995 92.6156C103.103 92.9226 103.294 93.1938 103.546 93.3995C103.798 93.6052 104.102 93.7374 104.425 93.7814C104.747 93.8255 105.076 93.7798 105.374 93.6493C105.672 93.5188 105.928 93.3086 106.115 93.0419C106.301 92.7751 106.41 92.4621 106.431 92.1372C106.451 91.8124 106.381 91.4883 106.229 91.2006L114.324 83.0959L138.408 83.0959L126.446 95.0495C126.073 94.8411 125.637 94.7746 125.219 94.8623C124.801 94.95 124.429 95.186 124.171 95.5267C123.914 95.8674 123.788 96.2899 123.817 96.7161C123.847 97.1422 124.029 97.5434 124.331 97.8455C124.633 98.1475 125.035 98.3302 125.461 98.3596C125.887 98.389 126.309 98.2633 126.65 98.0056C126.991 97.7479 127.227 97.3756 127.315 96.9575C127.402 96.5394 127.336 96.1037 127.127 95.7308L140.709 82.1491L113.926 82.1491Z" fill="#EDF3F3"/>
</svg>
