<svg width="340" height="62" viewBox="0 0 340 62" fill="none" xmlns="http://www.w3.org/2000/svg">
<path d="M108 39.6387V38.366C108 34.1842 108.902 33.2752 114.319 33.2752C120.443 33.2752 121.722 34.1842 121.722 38.366V46.9114C121.722 51.0931 120.217 52.0022 114.319 52.0022C109.083 52.0022 108 51.275 108 46.9114V44.9114H113.055V47.4568C113.055 48.5477 113.416 48.7295 114.56 48.7295C115.703 48.7295 116.064 48.5477 116.064 47.4568V43.8205H113.537V40.5478H116.064V37.8206C116.064 36.7297 115.703 36.5478 114.56 36.5478C113.416 36.5478 113.055 36.7297 113.055 37.8206V39.6387H108Z" fill="white"/>
<path d="M141.749 33.4564V51.8198H135.971V36.6685H133.082V45.3956C133.082 49.3956 131.096 51.941 126.582 51.941C125.318 51.941 124.596 51.7592 123.693 51.7592V47.7592C124.279 47.9297 124.891 47.9913 125.499 47.9411C127.003 47.9411 127.485 47.032 127.485 45.3956V33.3958L141.749 33.4564Z" fill="white"/>
<path d="M155.847 33.4564V36.7291H150.972V40.7139H155.666V43.8199H150.972V48.5472H156.389V51.8198H145.194V33.4564H155.847Z" fill="white"/>
<path d="M164.875 41.4412L168.486 33.4564H174.264L169.569 41.9866L174.986 51.8198H169.028L164.875 43.4563V51.8198H159.097V33.4564H164.875V41.4412Z" fill="white"/>
<path d="M188.528 33.4564V36.7291H184.721V51.8198H179.139V36.7291H175.347V33.4564H188.528Z" fill="white"/>
<path d="M196.277 51.8198H190.679V33.4564H196.277C202.416 33.4564 204.943 34.1837 204.943 38.1836V41.8199C204.943 45.6381 202.777 46.5472 197.179 46.5472H196.277V51.8198ZM196.277 43.2745H197.541C198.804 43.2745 199.346 42.9108 199.346 42.0018V38.0018C199.346 36.9109 198.804 36.7291 197.541 36.7291H196.277V43.2745Z" fill="white"/>
<path d="M221.916 38.366V46.9114C221.916 51.275 220.652 52.0022 214.513 52.0022C208.374 52.0022 207.291 51.0931 207.291 46.9114V38.366C207.291 34.1842 208.555 33.2752 214.513 33.2752C220.471 33.2752 221.916 34.1842 221.916 38.366ZM213.068 37.8206V47.4568C213.068 48.5477 213.43 48.7295 214.573 48.7295C215.717 48.7295 216.078 48.5477 216.078 47.4568V37.8206C216.078 36.7297 215.897 36.5478 214.573 36.5478C213.249 36.5478 213.068 36.7297 213.068 37.8206Z" fill="white"/>
<path d="M230.763 40.5473H233.652V33.4564H239.249V51.8198H233.652V43.8199H230.763V51.8198H225.181V33.4564H230.763V40.5473Z" fill="white"/>
<path d="M248.096 33.4564L247.555 45.6381L251.888 33.4564H258.569V51.8198H253.513L253.874 40.0018L249.541 51.8198H242.86V33.4564H248.096Z" fill="white"/>
<path d="M267.777 40.5473H270.666V33.4564H276.263V51.8198H270.666V43.8199H267.777V51.8198H262.18V33.4564H267.777V40.5473Z" fill="white"/>
<path d="M279.874 33.4564H287.397C292.453 33.4564 294.439 34.0019 294.439 37.2745V38.9109C294.439 40.9108 293.356 41.8199 290.467 42.1836C293.356 42.3654 294.62 43.4563 294.62 45.8199V48.0017C294.62 51.2744 292.634 51.8198 287.759 51.8198H279.814L279.874 33.4564ZM285.472 40.9109H287.097C288.36 40.9109 288.902 40.729 288.902 39.6382V38.0018C288.902 36.9109 288.36 36.7291 287.097 36.7291H285.472V40.9109ZM285.472 48.4865H287.277C288.541 48.4865 289.083 48.3047 289.083 47.2138V45.032C289.083 43.9411 288.541 43.7593 287.277 43.7593H285.472V48.4865Z" fill="white"/>
<path d="M308.583 33.4564V36.7291H303.527V40.7139H308.222V43.8199H303.527V48.5472H309.124V51.8198H297.93V33.4564H308.583Z" fill="white"/>
<path d="M320.138 39.6387V37.8206C320.138 36.7297 319.777 36.5478 318.634 36.5478C317.49 36.5478 317.37 36.7297 317.37 37.8206V47.4568C317.37 48.5477 317.535 48.7295 318.634 48.7295C319.732 48.7295 320.138 48.5477 320.138 47.4568V44.9114H325.179V46.9114C325.179 51.0931 324.111 52.0022 318.859 52.0022C312.841 52.0022 311.472 51.0931 311.472 46.9114V38.366C311.472 34.1842 312.736 33.2752 318.859 33.2752C324.291 33.2752 325.179 34.5479 325.179 38.366V39.6387H320.138Z" fill="white"/>
<path d="M340 33.4564V36.7291H336.208V51.8198H330.611V36.7291H326.638V33.4564H340Z" fill="white"/>
<path d="M115.583 12.7299V14.0026H110.166V25.457H108.361V12.7299H115.583Z" fill="white"/>
<path d="M121 12.9116C122.127 12.6704 123.277 12.5486 124.43 12.548C125.786 12.4113 127.142 12.8016 128.222 13.6389C128.628 13.9626 128.953 14.3782 129.17 14.8521C129.387 15.326 129.49 15.8447 129.471 16.3661C129.484 16.8697 129.396 17.3709 129.213 17.8395C129.029 18.3081 128.754 18.7346 128.402 19.0934C127.224 20.023 125.743 20.4768 124.25 20.3661H122.745V25.4872H120.94L121 12.9116ZM122.805 18.9722C123.288 19.142 123.801 19.2041 124.31 19.154C126.462 19.154 127.725 18.2449 127.725 16.4268C127.725 14.6086 126.462 13.8813 124.49 13.8813C123.768 13.8813 123.227 14.0632 122.865 14.0632L122.805 18.9722Z" fill="white"/>
<path d="M135.971 12.7299L139.762 20.3661C140.014 19.5602 140.316 18.7708 140.665 18.0025L142.651 12.7299H144.638L141.749 19.2752C141.092 20.9451 140.244 22.5317 139.221 24.0025C138.882 24.4944 138.434 24.899 137.911 25.1833C137.388 25.4677 136.806 25.6237 136.212 25.6388C135.841 25.6836 135.465 25.6206 135.128 25.457L135.309 24.1843H136.031C137.536 24.1843 138.198 22.9116 138.739 22.0025C138.747 21.748 138.684 21.4962 138.559 21.2752L134.045 12.7299H135.971Z" fill="white"/>
<path d="M159.819 12.7299V25.457H158.194V14.0026H151.875V25.457H150.069V12.7299H159.819Z" fill="white"/>
<path d="M176.792 12.7299V25.457H174.986V14.0026H168.667V25.457H166.861V12.7299H176.792Z" fill="white"/>
<path d="M185.985 21.457L184.48 25.457H182.675L187.369 12.7299H189.536L194.05 25.457H192.244L190.74 21.457H185.985ZM190.499 20.1843L188.994 16.3662L188.453 14.1844H188.272L187.73 16.3662L186.226 20.1843H190.499Z" fill="white"/>
<path d="M210.18 12.7299V18.3662H210.721L215.416 12.7299H217.402L212.346 18.548C213.241 18.6174 214.091 18.972 214.773 19.5604C215.455 20.1488 215.933 20.9404 216.138 21.8207C216.68 23.0934 217.041 24.1843 217.642 25.457H215.837C215.312 24.4941 214.888 23.4785 214.573 22.4267C214.389 21.5801 213.899 20.8324 213.198 20.3286C212.498 19.8247 211.637 19.6005 210.781 19.6995H210.24V25.4873H208.434V12.7602L210.18 12.7299Z" fill="white"/>
<path d="M234.555 18.9115C234.627 19.7824 234.516 20.6589 234.229 21.4837C233.942 22.3085 233.485 23.0631 232.889 23.698C232.292 24.3329 231.569 24.8339 230.768 25.1684C229.966 25.5028 229.103 25.663 228.235 25.6387C224.624 25.6387 222.217 22.9114 222.217 19.0933C222.149 18.2473 222.258 17.3964 222.538 16.5958C222.818 15.7951 223.261 15.0626 223.84 14.4455C224.419 13.8285 225.12 13.3407 225.898 13.0138C226.675 12.6869 227.513 12.5282 228.355 12.5479C229.189 12.5016 230.023 12.636 230.801 12.9419C231.579 13.2479 232.283 13.7183 232.864 14.3215C233.446 14.9247 233.893 15.6465 234.174 16.4384C234.455 17.2302 234.565 18.0735 234.494 18.9115H234.555ZM223.962 19.0933C223.962 21.8205 225.587 24.1842 228.295 24.1842C231.004 24.1842 232.629 21.8205 232.629 18.9115C232.629 16.3661 231.124 13.8206 228.295 13.8206C225.467 13.8206 223.962 16.3661 223.962 19.0933Z" fill="white"/>
<path d="M252.249 19.8207C252.249 18.0025 252.069 15.8207 252.069 14.3662C251.527 15.8813 250.985 17.3964 250.263 19.0934L247.916 25.2751H246.411L244.244 19.2146C243.703 17.3964 243.161 15.7601 242.74 14.3056H242.68C242.68 15.8207 242.68 17.9419 242.499 19.9419L242.138 25.3963H240.513L241.416 12.6692H243.582L245.93 18.7297C246.471 20.3661 247.013 21.76 247.434 23.0934C247.795 21.8207 248.337 20.3661 248.939 18.7297L251.286 12.6692H253.633L254.356 25.3963H252.61L252.249 19.8207Z" fill="white"/>
<path d="M270.846 12.7299V25.457H269.041V14.0026H262.721V25.457H261.096V12.7299H270.846Z" fill="white"/>
<path d="M280.055 21.457L278.55 25.457H276.745L281.439 12.7299H283.606L288.12 25.457H286.314L284.81 21.457H280.055ZM284.569 20.1843L283.305 16.3965C282.984 15.6988 282.741 14.9669 282.583 14.2147H282.402L281.8 16.3965L280.296 20.2146L284.569 20.1843Z" fill="white"/>
<path d="M295.944 12.7299V18.0026H302.624V12.7299H304.249V25.457H302.624V19.4571H295.944V25.457H294.319V12.7299H295.944Z" fill="white"/>
<path d="M313.097 12.7299V18.0025C313.097 20.0025 312.916 21.6389 312.916 23.457C313.623 22.1843 314.541 20.7298 315.444 19.2752L319.762 12.7299H321.583V25.4873H319.958V20.0328C319.921 18.2732 319.982 16.513 320.138 14.7602H319.958C319.316 16.3236 318.466 17.7916 317.43 19.1237L313.262 25.4873H311.472V12.7602L313.097 12.7299Z" fill="white"/>
<path d="M330.234 12.7294V18.0021C330.268 19.8222 330.207 21.6428 330.054 23.4566H330.234C330.916 21.9702 331.764 20.5672 332.762 19.2748L337.096 12.7294H338.976V25.4869H337.171V20.0324C337.171 18.0324 337.351 16.3961 337.351 14.7597C336.629 16.2748 335.726 17.6688 334.824 19.1233L330.671 25.4869H328.685V12.7598L330.234 12.7294ZM332.582 10.0022C332.582 10.5476 332.762 11.2749 333.665 11.2749C333.836 11.2972 334.01 11.2797 334.174 11.2236C334.337 11.1675 334.486 11.0744 334.608 10.9515C334.73 10.8285 334.822 10.679 334.878 10.5144C334.934 10.3499 334.951 10.1746 334.929 10.0022H336.434C336.253 11.2749 335.531 12.0022 333.725 12.0022C331.92 12.0022 331.378 11.2749 331.197 10.0022H332.582Z" fill="white"/>
<path d="M48.9613 0.00219727C21.5014 0.00219727 -0.000427246 13.6138 -0.000427246 30.9515C-0.000427246 48.2892 21.5269 62.0022 48.9613 62.0022C76.3957 62.0022 97.9996 48.3906 97.9996 30.9515C97.9996 13.5124 76.4723 0.00219727 48.9613 0.00219727ZM48.9613 56.5778C21.8334 56.5778 0.536016 45.3235 0.536016 30.9515C0.536016 16.5795 21.8334 5.32517 48.9613 5.32517C76.0891 5.32517 97.4951 16.5795 97.4951 30.9515C97.4951 45.3235 76.1977 56.5778 48.9613 56.5778Z" fill="white"/>
<path d="M15.0898 25.2484L15.7795 23.4233C18.0018 17.6441 19.7644 16.1993 26.0482 16.1993C33.0728 16.1993 34.0946 17.5681 31.8723 23.4233L27.2743 35.362C24.9753 41.3694 22.9063 42.586 15.9327 42.586C9.73189 42.586 8.8059 41.4455 11.1815 35.3621L12.1777 32.7006H18.2317L16.8523 36.1985C16.3159 37.6433 16.5458 38.0234 17.8485 38.0234C19.1513 38.0234 19.5344 37.6431 20.1475 36.1983L22.14 30.9514L19.1513 30.9515L20.9138 26.465L23.8769 26.465L25.333 22.5868C25.8694 21.142 25.7928 20.7618 24.49 20.7618C23.1873 20.7618 22.6508 21.1421 22.1144 22.5869L21.0415 25.2484H15.0898Z" fill="white"/>
<path d="M50.6472 24.0317L43.6225 42.2818H37.7985L43.2394 28.0618H40.685L37.8496 35.3619C36.2403 39.5443 33.8647 42.586 29.5477 42.586C28.5722 42.595 27.5977 42.5186 26.6357 42.3578L28.0917 38.5557H28.858C29.5092 38.6168 30.1618 38.4536 30.7061 38.0936C31.2503 37.7335 31.6531 37.1986 31.8467 36.5786L36.6745 24.0316L50.6472 24.0317Z" fill="white"/>
<path d="M63.4448 16.5036L56.3946 33.613L68.0427 16.5036H75.7826L65.8204 42.2819L59.8431 42.2818L66.74 25.6285L55.3984 42.2819L47.5116 42.282L57.3908 16.5036H63.4448Z" fill="white"/>
<path d="M80.074 30.5714H82.9094L85.4382 24.0317H91.2623L84.2888 42.2818H78.4647L81.3767 34.6016L78.5413 34.6015L75.5527 42.2818L69.7286 42.2819L76.7788 24.0317H82.6028L80.074 30.5714Z" fill="white"/>
</svg>
