<svg width="360" height="66" viewBox="0 0 360 66" fill="none" xmlns="http://www.w3.org/2000/svg">
<path d="M114.353 42.1937V40.8389C114.353 36.3873 115.309 35.4196 121.044 35.4196C127.528 35.4196 128.882 36.3873 128.882 40.8389V49.9356C128.882 54.3871 127.289 55.3548 121.044 55.3548C115.5 55.3548 114.353 54.5807 114.353 49.9356V47.8066H119.706V50.5162C119.706 51.6775 120.088 51.871 121.299 51.871C122.51 51.871 122.892 51.6775 122.892 50.5162V46.6453H120.216V43.1614H122.892V40.2583C122.892 39.097 122.51 38.9034 121.299 38.9034C120.088 38.9034 119.706 39.097 119.706 40.2583V42.1937H114.353Z" fill="#23419A"/>
<path d="M150.087 35.6125V55.1607H143.97V39.0318H140.911V48.3221C140.911 52.5801 138.808 55.2897 134.028 55.2897C132.69 55.2897 131.925 55.0961 130.969 55.0961V50.8382C131.59 51.0196 132.238 51.0851 132.881 51.0317C134.474 51.0317 134.984 50.064 134.984 48.3221V35.548L150.087 35.6125Z" fill="#23419A"/>
<path d="M165.015 35.6126V39.0964H159.853V43.3383H164.824V46.6447H159.853V51.6769H165.588V55.1607H153.735V35.6126H165.015Z" fill="#23419A"/>
<path d="M174.574 44.1125L178.397 35.6126H184.515L179.544 44.6931L185.28 55.1607H178.971L174.574 46.2576V55.1607H168.456V35.6126H174.574V44.1125Z" fill="#23419A"/>
<path d="M199.618 35.6126V39.0964H195.587V55.1607H189.677V39.0964H185.662V35.6126H199.618Z" fill="#23419A"/>
<path d="M207.823 55.1607H201.896V35.6126H207.823C214.323 35.6126 216.999 36.3867 216.999 40.6448V44.5157C216.999 48.5801 214.705 49.5479 208.779 49.5479H207.823V55.1607ZM207.823 46.064H209.161C210.499 46.064 211.073 45.6769 211.073 44.7092V40.4512C211.073 39.2899 210.499 39.0964 209.161 39.0964H207.823V46.064Z" fill="#23419A"/>
<path d="M234.97 40.8389V49.9356C234.97 54.5807 233.632 55.3548 227.132 55.3548C220.632 55.3548 219.485 54.3871 219.485 49.9356V40.8389C219.485 36.3873 220.823 35.4196 227.132 35.4196C233.441 35.4196 234.97 36.3873 234.97 40.8389ZM225.602 40.2583V50.5162C225.602 51.6775 225.985 51.871 227.195 51.871C228.406 51.871 228.789 51.6775 228.789 50.5162V40.2583C228.789 39.097 228.597 38.9034 227.195 38.9034C225.793 38.9034 225.602 39.097 225.602 40.2583Z" fill="#23419A"/>
<path d="M244.338 43.1609H247.397V35.6126H253.323V55.1607H247.397V46.6447H244.338V55.1607H238.427V35.6126H244.338V43.1609Z" fill="#23419A"/>
<path d="M262.691 35.6126L262.117 48.5802L266.705 35.6126H273.779V55.1607H268.426L268.808 42.5802L264.22 55.1607H257.147V35.6126H262.691Z" fill="#23419A"/>
<path d="M283.529 43.1609H286.588V35.6126H292.514V55.1607H286.588V46.6447H283.529V55.1607H277.602V35.6126H283.529V43.1609Z" fill="#23419A"/>
<path d="M296.338 35.6126H304.304C309.657 35.6126 311.76 36.1932 311.76 39.677V41.4189C311.76 43.5479 310.613 44.5157 307.554 44.9027C310.613 45.0963 311.951 46.2576 311.951 48.7737V51.0962C311.951 54.58 309.848 55.1607 304.686 55.1607H296.274L296.338 35.6126ZM302.264 43.5479H303.985C305.323 43.5479 305.897 43.3544 305.897 42.1931V40.4512C305.897 39.2899 305.323 39.0964 303.985 39.0964H302.264V43.5479ZM302.264 51.6124H304.176C305.514 51.6124 306.088 51.4188 306.088 50.2575V47.935C306.088 46.7737 305.514 46.5802 304.176 46.5802H302.264V51.6124Z" fill="#23419A"/>
<path d="M326.735 35.6126V39.0964H321.382V43.3383H326.353V46.6447H321.382V51.6769H327.309V55.1607H315.456V35.6126H326.735Z" fill="#23419A"/>
<path d="M338.97 42.1937V40.2583C338.97 39.097 338.588 38.9034 337.377 38.9034C336.167 38.9034 336.039 39.097 336.039 40.2583V50.5162C336.039 51.6775 336.214 51.871 337.377 51.871C338.54 51.871 338.97 51.6775 338.97 50.5162V47.8066H344.308V49.9356C344.308 54.3871 343.176 55.3548 337.616 55.3548C331.244 55.3548 329.794 54.3871 329.794 49.9356V40.8389C329.794 36.3873 331.132 35.4196 337.616 35.4196C343.368 35.4196 344.308 36.7744 344.308 40.8389V42.1937H338.97Z" fill="#23419A"/>
<path d="M360 35.6126V39.0964H355.985V55.1607H350.059V39.0964H345.853V35.6126H360Z" fill="#23419A"/>
<path d="M122.382 13.5488V14.9037H116.647V27.097H114.735V13.5488H122.382Z" fill="#23419A"/>
<path d="M128.118 13.7423C129.312 13.4855 130.529 13.3558 131.75 13.3552C133.186 13.2097 134.622 13.6251 135.765 14.5165C136.195 14.8611 136.539 15.3035 136.769 15.808C136.999 16.3124 137.108 16.8646 137.087 17.4197C137.101 17.9558 137.008 18.4892 136.814 18.9881C136.62 19.487 136.328 19.9409 135.956 20.3229C134.708 21.3125 133.14 21.7956 131.559 21.6777H129.966V27.1292H128.054L128.118 13.7423ZM130.03 20.1938C130.54 20.3747 131.084 20.4407 131.623 20.3874C133.901 20.3874 135.239 19.4197 135.239 17.4842C135.239 15.5487 133.901 14.7746 131.814 14.7746C131.049 14.7746 130.476 14.9681 130.093 14.9681L130.03 20.1938Z" fill="#23419A"/>
<path d="M143.97 13.5488L147.984 21.6777C148.251 20.8198 148.57 19.9795 148.94 19.1617L151.043 13.5488H153.146L150.087 20.5165C149.393 22.2941 148.494 23.983 147.411 25.5487C147.052 26.0723 146.577 26.503 146.024 26.8057C145.47 27.1084 144.853 27.2745 144.224 27.2906C143.832 27.3383 143.434 27.2712 143.077 27.0971L143.269 25.7422H144.033C145.626 25.7422 146.327 24.3874 146.901 23.4197C146.909 23.1487 146.843 22.8807 146.71 22.6455L141.93 13.5488H143.97Z" fill="#23419A"/>
<path d="M169.221 13.5488V27.097H167.5V14.9037H160.809V27.097H158.897V13.5488H169.221Z" fill="#23419A"/>
<path d="M187.192 13.5488V27.097H185.28V14.9037H178.589V27.097H176.677V13.5488H187.192Z" fill="#23419A"/>
<path d="M196.926 22.839L195.333 27.0971H193.421L198.391 13.5488H200.685L205.465 27.0971H203.553L201.96 22.839H196.926ZM201.705 21.4842L200.112 17.4197L199.538 15.0972H199.347L198.774 17.4197L197.181 21.4842H201.705Z" fill="#23419A"/>
<path d="M222.544 13.5488V19.5488H223.117L228.088 13.5488H230.191L224.838 19.7423C225.785 19.8162 226.686 20.1937 227.407 20.82C228.129 21.4464 228.635 22.2891 228.852 23.2261C229.426 24.5809 229.808 25.7422 230.445 27.0971H228.534C227.977 26.0721 227.529 24.9909 227.195 23.8713C227 22.97 226.481 22.1741 225.74 21.6377C224.998 21.1014 224.086 20.8628 223.181 20.9681H222.607V27.1293H220.695V13.5811L222.544 13.5488Z" fill="#23419A"/>
<path d="M248.352 20.1292C248.429 21.0564 248.311 21.9894 248.007 22.8674C247.703 23.7454 247.22 24.5487 246.588 25.2245C245.957 25.9004 245.192 26.4338 244.343 26.7898C243.493 27.1458 242.58 27.3164 241.661 27.2905C237.838 27.2905 235.289 24.3873 235.289 20.3228C235.217 19.4222 235.333 18.5165 235.629 17.6641C235.925 16.8118 236.395 16.032 237.008 15.3752C237.62 14.7183 238.363 14.1991 239.186 13.8511C240.01 13.5031 240.896 13.3342 241.789 13.3551C242.671 13.3058 243.555 13.4489 244.378 13.7746C245.202 14.1003 245.947 14.6011 246.563 15.2431C247.179 15.8852 247.652 16.6537 247.95 17.4966C248.247 18.3395 248.363 19.2372 248.289 20.1292H248.352ZM237.137 20.3228C237.137 23.226 238.857 25.7421 241.725 25.7421C244.593 25.7421 246.313 23.226 246.313 20.1292C246.313 17.4196 244.72 14.71 241.725 14.71C238.73 14.71 237.137 17.4196 237.137 20.3228Z" fill="#23419A"/>
<path d="M267.088 21.0971C267.088 19.1616 266.897 16.8391 266.897 15.2907C266.323 16.9036 265.75 18.5165 264.985 20.3229L262.5 26.9034H260.906L258.612 20.4519C258.039 18.5165 257.465 16.7745 257.019 15.2262H256.955C256.955 16.839 256.955 19.0971 256.764 21.2261L256.382 27.0325H254.661L255.617 13.4842H257.911L260.397 19.9358C260.97 21.6777 261.544 23.1616 261.99 24.5809C262.372 23.2261 262.946 21.6777 263.583 19.9358L266.068 13.4842H268.554L269.318 27.0325H267.47L267.088 21.0971Z" fill="#23419A"/>
<path d="M286.779 13.5488V27.097H284.867V14.9037H278.176V27.097H276.455V13.5488H286.779Z" fill="#23419A"/>
<path d="M296.529 22.839L294.936 27.0971H293.024L297.995 13.5488H300.289L305.068 27.0971H303.157L301.563 22.839H296.529ZM301.309 21.4842L299.97 17.452C299.63 16.7093 299.374 15.9302 299.206 15.1294H299.014L298.377 17.452L296.784 21.5164L301.309 21.4842Z" fill="#23419A"/>
<path d="M313.353 13.5488V19.1617H320.426V13.5488H322.147V27.097H320.426V20.71H313.353V27.097H311.632V13.5488H313.353Z" fill="#23419A"/>
<path d="M331.515 13.5488V19.1617C331.515 21.2907 331.323 23.0326 331.323 24.968C332.072 23.6132 333.044 22.0648 334 20.5165L338.572 13.5488H340.5V27.1293H338.779V21.3229C338.741 19.4498 338.804 17.576 338.97 15.7101H338.779C338.1 17.3743 337.199 18.9371 336.103 20.3552L331.69 27.1293H329.794V13.5811L331.515 13.5488Z" fill="#23419A"/>
<path d="M349.661 13.5484V19.1612C349.696 21.0987 349.632 23.0367 349.469 24.9676H349.661C350.382 23.3853 351.28 21.8918 352.337 20.516L356.925 13.5484H358.917V27.1288H357.005V21.3224C357.005 19.1934 357.196 17.4515 357.196 15.7096C356.431 17.3225 355.475 18.8064 354.52 20.3547L350.122 27.1288H348.02V13.5806L349.661 13.5484ZM352.146 10.6452C352.146 11.2258 352.337 12 353.293 12C353.474 12.0237 353.659 12.005 353.832 11.9453C354.005 11.8857 354.162 11.7865 354.291 11.6557C354.42 11.5248 354.518 11.3657 354.577 11.1905C354.636 11.0153 354.655 10.8287 354.631 10.6452H356.224C356.033 12 355.268 12.7742 353.357 12.7742C351.445 12.7742 350.871 12 350.68 10.6452H352.146Z" fill="#23419A"/>
<path d="M51.8418 0C22.7666 0 0 14.4898 0 32.946C0 51.4023 22.7936 66 51.8418 66C80.89 66 103.765 51.5102 103.765 32.946C103.765 14.3818 80.9711 0 51.8418 0ZM51.8418 60.2257C23.1182 60.2257 0.567999 48.2453 0.567999 32.946C0.567999 17.6468 23.1182 5.66639 51.8418 5.66639C80.5654 5.66639 103.231 17.6468 103.231 32.946C103.231 48.2453 80.6804 60.2257 51.8418 60.2257Z" fill="#23419A"/>
<path d="M15.9778 26.8749L16.7081 24.9322C19.0612 18.7801 20.9274 17.2421 27.5809 17.2421C35.0188 17.2421 36.1006 18.6991 33.7476 24.9322L28.8791 37.6411C26.4449 44.036 24.2541 45.3312 16.8704 45.3312C10.3048 45.3312 9.32435 44.117 11.8397 37.6412L12.8945 34.8079H19.3046L17.8441 38.5315C17.2761 40.0695 17.5195 40.4741 18.8989 40.4741C20.2783 40.4741 20.684 40.0694 21.3331 38.5314L23.4428 32.9459L20.2783 32.9461L22.1445 28.1701L25.2819 28.1701L26.8236 24.0417C27.3916 22.5037 27.3104 22.099 25.9311 22.099C24.5517 22.099 23.9837 22.5037 23.4157 24.0417L22.2797 26.8749H15.9778Z" fill="#23419A"/>
<path d="M53.6269 25.5798L46.189 45.0073H40.0224L45.7833 29.8699H43.0787L40.0765 37.641C38.3725 42.0932 35.8572 45.3311 31.2863 45.3311C30.2534 45.3407 29.2216 45.2594 28.203 45.0883L29.7446 41.0408H30.556C31.2455 41.1059 31.9365 40.9322 32.5128 40.5489C33.089 40.1656 33.5155 39.5962 33.7205 38.9362L38.8323 25.5797L53.6269 25.5798Z" fill="#23419A"/>
<path d="M67.1773 17.566L59.7124 35.7793L72.0457 17.566H80.2408L69.6926 45.0074L63.3637 45.0073L70.6663 27.2796L58.6576 45.0074L50.3069 45.0075L60.7672 17.566H67.1773Z" fill="#23419A"/>
<path d="M84.7847 32.5414H87.7869L90.4645 25.5798H96.6311L89.2474 45.0073H83.0807L86.164 36.8316L83.1619 36.8315L79.9974 45.0073L73.8308 45.0074L81.2956 25.5798H87.4623L84.7847 32.5414Z" fill="#23419A"/>
</svg>
