<svg width="14" height="14" viewBox="0 0 14 14" fill="none" xmlns="http://www.w3.org/2000/svg">
<g clip-path="url(#clip0_304_4602)">
<path d="M9.91666 1.74967H12.25C12.4047 1.74967 12.5531 1.81113 12.6625 1.92053C12.7719 2.02993 12.8333 2.1783 12.8333 2.33301V11.6663C12.8333 11.8211 12.7719 11.9694 12.6625 12.0788C12.5531 12.1882 12.4047 12.2497 12.25 12.2497H1.75C1.59529 12.2497 1.44691 12.1882 1.33752 12.0788C1.22812 11.9694 1.16666 11.8211 1.16666 11.6663V2.33301C1.16666 2.1783 1.22812 2.02993 1.33752 1.92053C1.44691 1.81113 1.59529 1.74967 1.75 1.74967H4.08333V0.583008H5.25V1.74967H8.75V0.583008H9.91666V1.74967ZM8.75 2.91634H5.25V4.08301H4.08333V2.91634H2.33333V5.24967H11.6667V2.91634H9.91666V4.08301H8.75V2.91634ZM11.6667 6.41634H2.33333V11.083H11.6667V6.41634Z" fill="white"/>
</g>
<defs>
<clipPath id="clip0_304_4602">
<rect width="14" height="14" fill="white"/>
</clipPath>
</defs>
</svg>
