<svg width="266" height="180" viewBox="0 0 266 180" fill="none" xmlns="http://www.w3.org/2000/svg">
<circle opacity="0.2" cx="133.849" cy="90" r="90" fill="#1B2133"/>
<path d="M223 22.0752H233.377C238.9 22.0752 243.377 26.5523 243.377 32.0752V42.4526H238C229.716 42.4526 223 35.7368 223 27.4526V22.0752Z" fill="white"/>
<path d="M223 157.924H233.377C238.9 157.924 243.377 153.447 243.377 147.924V137.546H238C229.716 137.546 223 144.262 223 152.546V157.924Z" fill="white"/>
<path d="M43 157.924H32.6226C27.0998 157.924 22.6226 153.447 22.6226 147.924V137.546H28C36.2843 137.546 43 144.262 43 152.546V157.924Z" fill="white"/>
<path d="M43 22.0752H32.6226C27.0998 22.0752 22.6226 26.5523 22.6226 32.0752V42.4526H28C36.2843 42.4526 43 35.7368 43 27.4526V22.0752Z" fill="white"/>
<path d="M29.6038 41.0563C36.2312 41.0563 41.6038 35.6837 41.6038 29.0563V24.0752H224.396V29.0563C224.396 35.6837 229.769 41.0563 236.396 41.0563H241.377V138.943H236.396C229.769 138.943 224.396 144.316 224.396 150.943V155.924H41.6038V150.943C41.6038 144.316 36.2312 138.943 29.6038 138.943H24.6226V41.0563H29.6038Z" stroke="white" stroke-width="4"/>
<path d="M204.843 48.1312L204.846 48.1312L207.844 48.1118C213.115 48.0778 217.406 52.341 217.406 57.6116V58.2233V121.776V122.388C217.406 127.658 213.115 131.922 207.844 131.888L204.846 131.868H204.843L61.1567 131.868L61.1535 131.868L58.1557 131.888C52.8851 131.922 48.5943 127.658 48.5943 122.388L48.5943 121.776V58.2258L48.601 57.5387C48.6518 52.3283 52.89 48.1312 58.1006 48.1312H61.1567L204.843 48.1312Z" stroke="white"/>
<circle cx="31.9623" cy="31.4152" r="3.74528" stroke="white"/>
<circle cx="31.9623" cy="148.584" r="3.74528" stroke="white"/>
<circle cx="233.189" cy="32.2638" r="4.24528" stroke="#23419A" stroke-width="2"/>
<circle cx="4.24528" cy="4.24528" r="4.24528" transform="matrix(1 0 0 -1 228.943 151.98)" stroke="#23419A" stroke-width="2"/>
<circle cx="32.8113" cy="147.735" r="4.24528" transform="rotate(180 32.8113 147.735)" stroke="#23419A" stroke-width="2"/>
<circle cx="4.24528" cy="4.24528" r="4.24528" transform="matrix(-1 0 0 1 37.0566 28.0186)" stroke="#23419A" stroke-width="2"/>
<line x1="26.0189" y1="83.5098" x2="0.547161" y2="83.5098" stroke="white" stroke-width="4"/>
<line x1="26.0189" y1="66.5283" x2="13.283" y2="66.5283" stroke="white" stroke-width="4"/>
<line x1="26.0189" y1="100.49" x2="0.547161" y2="100.49" stroke="white" stroke-width="4"/>
<line x1="26.0189" y1="117.472" x2="0.547161" y2="117.472" stroke="white" stroke-width="4"/>
<line x1="265.453" y1="75.0186" x2="239.981" y2="75.0186" stroke="white" stroke-width="4"/>
<line x1="265.453" y1="58.0371" x2="239.981" y2="58.0371" stroke="white" stroke-width="4"/>
<line x1="265.453" y1="91.999" x2="239.981" y2="91.999" stroke="white" stroke-width="4"/>
<line x1="265.453" y1="108.98" x2="239.981" y2="108.98" stroke="white" stroke-width="4"/>
<line x1="265.453" y1="125.962" x2="239.981" y2="125.962" stroke="white" stroke-width="4"/>
<path d="M107.746 110.669L104.608 106.132H106.455L108.765 109.46L111.101 106.132H112.895L109.77 110.642L113.031 115.641H111.156L108.738 111.837L106.292 115.641H104.472L107.746 110.669Z" fill="white"/>
<path d="M113.841 111.131H118.053V112.544H113.841V111.131Z" fill="white"/>
<path d="M122.14 110.669L119.002 106.132H120.85L123.159 109.46L125.496 106.132H127.289L124.164 110.642L127.425 115.641H125.55L123.132 111.837L120.687 115.641H118.866L122.14 110.669Z" fill="white"/>
<path d="M128.236 111.131H132.447V112.544H128.236V111.131Z" fill="white"/>
<path d="M136.534 110.669L133.396 106.132H135.244L137.553 109.46L139.89 106.132H141.683L138.558 110.642L141.819 115.641H139.944L137.526 111.837L135.081 115.641H133.26L136.534 110.669Z" fill="white"/>
<path d="M145.9 110.669L142.762 106.132H144.61L146.919 109.46L149.256 106.132H151.049L147.925 110.642L151.185 115.641H149.31L146.892 111.837L144.447 115.641H142.627L145.9 110.669Z" fill="white"/>
<path d="M155.267 110.669L152.129 106.132H153.976L156.285 109.46L158.622 106.132H160.415L157.291 110.642L160.551 115.641H158.676L156.258 111.837L153.813 115.641H151.993L155.267 110.669Z" fill="white"/>
<path d="M132.13 63.6787C117.088 63.6787 105.309 71.1349 105.309 80.6321C105.309 90.1293 117.102 97.641 132.13 97.641C147.158 97.641 158.992 90.1848 158.992 80.6321C158.992 71.0793 147.2 63.6787 132.13 63.6787ZM132.13 94.6696C117.27 94.6696 105.603 88.5048 105.603 80.6321C105.603 72.7594 117.27 66.5945 132.13 66.5945C146.99 66.5945 158.715 72.7594 158.715 80.6321C158.715 88.5048 147.049 94.6696 132.13 94.6696Z" fill="white"/>
<path d="M113.576 77.508L113.953 76.5083C115.171 73.3426 116.136 72.5511 119.578 72.5511C123.426 72.5511 123.986 73.3009 122.769 76.5083L120.25 83.0481C118.991 86.3388 117.857 87.0052 114.037 87.0052C110.641 87.0052 110.133 86.3804 111.435 83.0481L111.98 81.5902H115.297L114.541 83.5063C114.247 84.2977 114.373 84.5059 115.087 84.5059C115.8 84.5059 116.01 84.2976 116.346 83.5062L117.438 80.632L115.8 80.6321L116.766 78.1745L118.389 78.1745L119.187 76.0501C119.48 75.2587 119.438 75.0504 118.725 75.0504C118.011 75.0504 117.717 75.2587 117.424 76.0501L116.836 77.508H113.576Z" fill="white"/>
<path d="M133.053 76.8416L129.205 86.8386H126.015L128.995 79.0492H127.596L126.043 83.048C125.161 85.339 123.86 87.0052 121.495 87.0052C120.961 87.0101 120.427 86.9683 119.9 86.8802L120.698 84.7975H121.118C121.474 84.831 121.832 84.7416 122.13 84.5444C122.428 84.3471 122.649 84.0541 122.755 83.7145L125.399 76.8415L133.053 76.8416Z" fill="white"/>
<path d="M140.063 72.7178L136.201 82.09L142.582 72.7178H146.822L141.365 86.8386L138.09 86.8386L141.868 77.7162L135.656 86.8386L131.336 86.8387L136.747 72.7178H140.063Z" fill="white"/>
<path d="M149.173 80.4238H150.726L152.111 76.8416H155.301L151.481 86.8386H148.291L149.886 82.6315L148.333 82.6315L146.696 86.8386L143.506 86.8386L147.367 76.8416H150.558L149.173 80.4238Z" fill="white"/>
</svg>
