<svg width="180" height="180" viewBox="0 0 180 180" fill="none" xmlns="http://www.w3.org/2000/svg">
<circle opacity="0.2" cx="90" cy="90" r="90" fill="#1B2133"/>
<rect x="9.83963" y="9.83984" width="160.321" height="160.321" rx="9.5" stroke="white"/>
<rect x="18.1321" y="18.1328" width="143.736" height="143.736" rx="71.8679" stroke="white" stroke-width="4"/>
<circle cx="23.7736" cy="23.7745" r="5.4434" stroke="white"/>
<circle cx="23.7736" cy="156.227" r="5.4434" stroke="white"/>
<circle cx="156.226" cy="23.7745" r="5.4434" stroke="white"/>
<circle cx="156.226" cy="156.227" r="5.4434" stroke="white"/>
<path d="M141.792 90.0005C141.792 92.0732 140.112 93.7535 138.039 93.7535C135.967 93.7535 134.286 92.0732 134.286 90.0005C134.286 87.9277 135.967 86.2474 138.039 86.2474C140.112 86.2474 141.792 87.9277 141.792 90.0005Z" fill="white"/>
<path d="M129.783 90.0005C129.783 92.0732 128.102 93.7535 126.03 93.7535C123.957 93.7535 122.276 92.0732 122.276 90.0005C122.276 87.9277 123.957 86.2474 126.03 86.2474C128.102 86.2474 129.783 87.9277 129.783 90.0005Z" fill="white"/>
<path d="M117.773 90.0005C117.773 92.0732 116.092 93.7535 114.02 93.7535C111.947 93.7535 110.267 92.0732 110.267 90.0005C110.267 87.9277 111.947 86.2474 114.02 86.2474C116.092 86.2474 117.773 87.9277 117.773 90.0005Z" fill="white"/>
<path d="M105.763 90.0005C105.763 92.0732 104.083 93.7535 102.01 93.7535C99.9371 93.7535 98.2568 92.0732 98.2568 90.0005C98.2568 87.9277 99.9371 86.2474 102.01 86.2474C104.083 86.2474 105.763 87.9277 105.763 90.0005Z" fill="white"/>
<path d="M93.7531 90.0005C93.7531 92.0732 92.0728 93.7535 90 93.7535C87.9272 93.7535 86.2469 92.0732 86.2469 90.0005C86.2469 87.9277 87.9272 86.2474 90 86.2474C92.0728 86.2474 93.7531 87.9277 93.7531 90.0005Z" fill="white"/>
<path d="M81.7432 90.0005C81.7432 92.0732 80.0629 93.7535 77.9902 93.7535C75.9174 93.7535 74.2371 92.0732 74.2371 90.0005C74.2371 87.9277 75.9174 86.2474 77.9902 86.2474C80.0629 86.2474 81.7432 87.9277 81.7432 90.0005Z" fill="white"/>
<path d="M69.7334 90.0005C69.7334 92.0732 68.0531 93.7535 65.9803 93.7535C63.9075 93.7535 62.2272 92.0732 62.2272 90.0005C62.2272 87.9277 63.9075 86.2474 65.9803 86.2474C68.0531 86.2474 69.7334 87.9277 69.7334 90.0005Z" fill="white"/>
<path d="M57.7235 90.0005C57.7235 92.0732 56.0432 93.7535 53.9705 93.7535C51.8977 93.7535 50.2174 92.0732 50.2174 90.0005C50.2174 87.9277 51.8977 86.2474 53.9705 86.2474C56.0432 86.2474 57.7235 87.9277 57.7235 90.0005Z" fill="white"/>
<path d="M45.7137 90.0005C45.7137 92.0732 44.0334 93.7535 41.9606 93.7535C39.8879 93.7535 38.2076 92.0732 38.2076 90.0005C38.2076 87.9277 39.8879 86.2474 41.9606 86.2474C44.0334 86.2474 45.7137 87.9277 45.7137 90.0005Z" fill="white"/>
<path d="M141.792 102.01C141.792 104.083 140.112 105.763 138.039 105.763C135.967 105.763 134.286 104.083 134.286 102.01C134.286 99.9375 135.967 98.2572 138.039 98.2572C140.112 98.2572 141.792 99.9375 141.792 102.01Z" fill="white"/>
<path d="M129.783 102.01C129.783 104.083 128.102 105.763 126.03 105.763C123.957 105.763 122.276 104.083 122.276 102.01C122.276 99.9375 123.957 98.2572 126.03 98.2572C128.102 98.2572 129.783 99.9375 129.783 102.01Z" fill="white"/>
<path d="M117.773 102.01C117.773 104.083 116.092 105.763 114.02 105.763C111.947 105.763 110.267 104.083 110.267 102.01C110.267 99.9375 111.947 98.2572 114.02 98.2572C116.092 98.2572 117.773 99.9375 117.773 102.01Z" fill="white"/>
<path d="M105.763 102.01C105.763 104.083 104.083 105.763 102.01 105.763C99.9371 105.763 98.2568 104.083 98.2568 102.01C98.2568 99.9375 99.9371 98.2572 102.01 98.2572C104.083 98.2572 105.763 99.9375 105.763 102.01Z" fill="white"/>
<path d="M93.7531 102.01C93.7531 104.083 92.0728 105.763 90 105.763C87.9272 105.763 86.2469 104.083 86.2469 102.01C86.2469 99.9375 87.9272 98.2572 90 98.2572C92.0728 98.2572 93.7531 99.9375 93.7531 102.01Z" fill="white"/>
<path d="M81.7432 102.01C81.7432 104.083 80.0629 105.763 77.9902 105.763C75.9174 105.763 74.2371 104.083 74.2371 102.01C74.2371 99.9375 75.9174 98.2572 77.9902 98.2572C80.0629 98.2572 81.7432 99.9375 81.7432 102.01Z" fill="white"/>
<path d="M69.7334 102.01C69.7334 104.083 68.0531 105.763 65.9803 105.763C63.9075 105.763 62.2272 104.083 62.2272 102.01C62.2272 99.9375 63.9075 98.2572 65.9803 98.2572C68.0531 98.2572 69.7334 99.9375 69.7334 102.01Z" fill="white"/>
<path d="M57.7235 102.01C57.7235 104.083 56.0432 105.763 53.9705 105.763C51.8977 105.763 50.2174 104.083 50.2174 102.01C50.2174 99.9375 51.8977 98.2572 53.9705 98.2572C56.0432 98.2572 57.7235 99.9375 57.7235 102.01Z" fill="white"/>
<path d="M45.7137 102.01C45.7137 104.083 44.0334 105.763 41.9606 105.763C39.8879 105.763 38.2076 104.083 38.2076 102.01C38.2076 99.9375 39.8879 98.2572 41.9606 98.2572C44.0334 98.2572 45.7137 99.9375 45.7137 102.01Z" fill="white"/>
<path d="M129.783 114.02C129.783 116.093 128.102 117.773 126.03 117.773C123.957 117.773 122.276 116.093 122.276 114.02C122.276 111.947 123.957 110.267 126.03 110.267C128.102 110.267 129.783 111.947 129.783 114.02Z" fill="white"/>
<path d="M117.773 114.02C117.773 116.093 116.092 117.773 114.02 117.773C111.947 117.773 110.267 116.093 110.267 114.02C110.267 111.947 111.947 110.267 114.02 110.267C116.092 110.267 117.773 111.947 117.773 114.02Z" fill="white"/>
<path d="M105.763 114.02C105.763 116.093 104.083 117.773 102.01 117.773C99.9371 117.773 98.2568 116.093 98.2568 114.02C98.2568 111.947 99.9371 110.267 102.01 110.267C104.083 110.267 105.763 111.947 105.763 114.02Z" fill="white"/>
<path d="M93.7531 114.02C93.7531 116.093 92.0728 117.773 90 117.773C87.9272 117.773 86.2469 116.093 86.2469 114.02C86.2469 111.947 87.9272 110.267 90 110.267C92.0728 110.267 93.7531 111.947 93.7531 114.02Z" fill="white"/>
<path d="M81.7432 114.02C81.7432 116.093 80.0629 117.773 77.9902 117.773C75.9174 117.773 74.2371 116.093 74.2371 114.02C74.2371 111.947 75.9174 110.267 77.9902 110.267C80.0629 110.267 81.7432 111.947 81.7432 114.02Z" fill="white"/>
<path d="M69.7334 114.02C69.7334 116.093 68.0531 117.773 65.9803 117.773C63.9075 117.773 62.2272 116.093 62.2272 114.02C62.2272 111.947 63.9075 110.267 65.9803 110.267C68.0531 110.267 69.7334 111.947 69.7334 114.02Z" fill="white"/>
<path d="M57.7235 114.02C57.7235 116.093 56.0432 117.773 53.9705 117.773C51.8977 117.773 50.2174 116.093 50.2174 114.02C50.2174 111.947 51.8977 110.267 53.9705 110.267C56.0432 110.267 57.7235 111.947 57.7235 114.02Z" fill="white"/>
<path d="M117.773 126.03C117.773 128.103 116.092 129.783 114.02 129.783C111.947 129.783 110.267 128.103 110.267 126.03C110.267 123.957 111.947 122.277 114.02 122.277C116.092 122.277 117.773 123.957 117.773 126.03Z" fill="white"/>
<path d="M105.763 126.03C105.763 128.103 104.083 129.783 102.01 129.783C99.9371 129.783 98.2568 128.103 98.2568 126.03C98.2568 123.957 99.9371 122.277 102.01 122.277C104.083 122.277 105.763 123.957 105.763 126.03Z" fill="white"/>
<path d="M93.7531 126.03C93.7531 128.103 92.0728 129.783 90 129.783C87.9272 129.783 86.2469 128.103 86.2469 126.03C86.2469 123.957 87.9272 122.277 90 122.277C92.0728 122.277 93.7531 123.957 93.7531 126.03Z" fill="white"/>
<path d="M81.7432 126.03C81.7432 128.103 80.0629 129.783 77.9902 129.783C75.9174 129.783 74.2371 128.103 74.2371 126.03C74.2371 123.957 75.9174 122.277 77.9902 122.277C80.0629 122.277 81.7432 123.957 81.7432 126.03Z" fill="white"/>
<path d="M69.7334 126.03C69.7334 128.103 68.0531 129.783 65.9803 129.783C63.9075 129.783 62.2272 128.103 62.2272 126.03C62.2272 123.957 63.9075 122.277 65.9803 122.277C68.0531 122.277 69.7334 123.957 69.7334 126.03Z" fill="white"/>
<path d="M105.763 138.04C105.763 140.113 104.083 141.793 102.01 141.793C99.9371 141.793 98.2568 140.113 98.2568 138.04C98.2568 135.967 99.9371 134.287 102.01 134.287C104.083 134.287 105.763 135.967 105.763 138.04Z" fill="white"/>
<path d="M93.7531 138.04C93.7531 140.113 92.0728 141.793 90 141.793C87.9272 141.793 86.2469 140.113 86.2469 138.04C86.2469 135.967 87.9272 134.287 90 134.287C92.0728 134.287 93.7531 135.967 93.7531 138.04Z" fill="white"/>
<path d="M81.7432 138.04C81.7432 140.113 80.0629 141.793 77.9902 141.793C75.9174 141.793 74.2371 140.113 74.2371 138.04C74.2371 135.967 75.9174 134.287 77.9902 134.287C80.0629 134.287 81.7432 135.967 81.7432 138.04Z" fill="white"/>
<path d="M141.792 77.9906C141.792 80.0634 140.112 81.7437 138.039 81.7437C135.967 81.7437 134.286 80.0634 134.286 77.9906C134.286 75.9179 135.967 74.2375 138.039 74.2375C140.112 74.2375 141.792 75.9179 141.792 77.9906Z" fill="white"/>
<path d="M129.783 77.9906C129.783 80.0634 128.102 81.7437 126.03 81.7437C123.957 81.7437 122.276 80.0634 122.276 77.9906C122.276 75.9179 123.957 74.2375 126.03 74.2375C128.102 74.2375 129.783 75.9179 129.783 77.9906Z" fill="white"/>
<path d="M117.773 77.9906C117.773 80.0634 116.092 81.7437 114.02 81.7437C111.947 81.7437 110.267 80.0634 110.267 77.9906C110.267 75.9179 111.947 74.2375 114.02 74.2375C116.092 74.2375 117.773 75.9179 117.773 77.9906Z" fill="white"/>
<path d="M105.763 77.9906C105.763 80.0634 104.083 81.7437 102.01 81.7437C99.9371 81.7437 98.2568 80.0634 98.2568 77.9906C98.2568 75.9179 99.9371 74.2375 102.01 74.2375C104.083 74.2375 105.763 75.9179 105.763 77.9906Z" fill="white"/>
<path d="M93.7531 77.9906C93.7531 80.0634 92.0728 81.7437 90 81.7437C87.9272 81.7437 86.2469 80.0634 86.2469 77.9906C86.2469 75.9179 87.9272 74.2375 90 74.2375C92.0728 74.2375 93.7531 75.9179 93.7531 77.9906Z" fill="white"/>
<path d="M81.7432 77.9906C81.7432 80.0634 80.0629 81.7437 77.9902 81.7437C75.9174 81.7437 74.2371 80.0634 74.2371 77.9906C74.2371 75.9179 75.9174 74.2375 77.9902 74.2375C80.0629 74.2375 81.7432 75.9179 81.7432 77.9906Z" fill="white"/>
<path d="M69.7334 77.9906C69.7334 80.0634 68.0531 81.7437 65.9803 81.7437C63.9075 81.7437 62.2272 80.0634 62.2272 77.9906C62.2272 75.9179 63.9075 74.2375 65.9803 74.2375C68.0531 74.2375 69.7334 75.9179 69.7334 77.9906Z" fill="white"/>
<path d="M57.7235 77.9906C57.7235 80.0634 56.0432 81.7437 53.9705 81.7437C51.8977 81.7437 50.2174 80.0634 50.2174 77.9906C50.2174 75.9179 51.8977 74.2375 53.9705 74.2375C56.0432 74.2375 57.7235 75.9179 57.7235 77.9906Z" fill="white"/>
<path d="M45.7137 77.9906C45.7137 80.0634 44.0334 81.7437 41.9606 81.7437C39.8879 81.7437 38.2076 80.0634 38.2076 77.9906C38.2076 75.9179 39.8879 74.2375 41.9606 74.2375C44.0334 74.2375 45.7137 75.9179 45.7137 77.9906Z" fill="white"/>
<path d="M129.783 65.9808C129.783 68.0535 128.102 69.7339 126.03 69.7339C123.957 69.7339 122.276 68.0535 122.276 65.9808C122.276 63.908 123.957 62.2277 126.03 62.2277C128.102 62.2277 129.783 63.908 129.783 65.9808Z" fill="white"/>
<path d="M117.773 65.9808C117.773 68.0535 116.092 69.7339 114.02 69.7339C111.947 69.7339 110.267 68.0535 110.267 65.9808C110.267 63.908 111.947 62.2277 114.02 62.2277C116.092 62.2277 117.773 63.908 117.773 65.9808Z" fill="white"/>
<path d="M105.763 65.9808C105.763 68.0535 104.083 69.7339 102.01 69.7339C99.9371 69.7339 98.2568 68.0535 98.2568 65.9808C98.2568 63.908 99.9371 62.2277 102.01 62.2277C104.083 62.2277 105.763 63.908 105.763 65.9808Z" fill="white"/>
<path d="M93.7531 65.9808C93.7531 68.0535 92.0728 69.7339 90 69.7339C87.9272 69.7339 86.2469 68.0535 86.2469 65.9808C86.2469 63.908 87.9272 62.2277 90 62.2277C92.0728 62.2277 93.7531 63.908 93.7531 65.9808Z" fill="white"/>
<path d="M81.7432 65.9808C81.7432 68.0535 80.0629 69.7339 77.9902 69.7339C75.9174 69.7339 74.2371 68.0535 74.2371 65.9808C74.2371 63.908 75.9174 62.2277 77.9902 62.2277C80.0629 62.2277 81.7432 63.908 81.7432 65.9808Z" fill="white"/>
<path d="M69.7334 65.9808C69.7334 68.0535 68.0531 69.7339 65.9803 69.7339C63.9075 69.7339 62.2272 68.0535 62.2272 65.9808C62.2272 63.908 63.9075 62.2277 65.9803 62.2277C68.0531 62.2277 69.7334 63.908 69.7334 65.9808Z" fill="white"/>
<path d="M57.7235 65.9808C57.7235 68.0535 56.0432 69.7339 53.9705 69.7339C51.8977 69.7339 50.2174 68.0535 50.2174 65.9808C50.2174 63.908 51.8977 62.2277 53.9705 62.2277C56.0432 62.2277 57.7235 63.908 57.7235 65.9808Z" fill="white"/>
<path d="M117.773 53.9709C117.773 56.0437 116.092 57.724 114.02 57.724C111.947 57.724 110.267 56.0437 110.267 53.9709C110.267 51.8982 111.947 50.2179 114.02 50.2179C116.092 50.2179 117.773 51.8982 117.773 53.9709Z" fill="white"/>
<path d="M105.763 53.9709C105.763 56.0437 104.083 57.724 102.01 57.724C99.9371 57.724 98.2568 56.0437 98.2568 53.9709C98.2568 51.8982 99.9371 50.2179 102.01 50.2179C104.083 50.2179 105.763 51.8982 105.763 53.9709Z" fill="white"/>
<path d="M93.7531 53.9709C93.7531 56.0437 92.0728 57.724 90 57.724C87.9272 57.724 86.2469 56.0437 86.2469 53.9709C86.2469 51.8982 87.9272 50.2179 90 50.2179C92.0728 50.2179 93.7531 51.8982 93.7531 53.9709Z" fill="white"/>
<path d="M81.7432 53.9709C81.7432 56.0437 80.0629 57.724 77.9902 57.724C75.9174 57.724 74.2371 56.0437 74.2371 53.9709C74.2371 51.8982 75.9174 50.2179 77.9902 50.2179C80.0629 50.2179 81.7432 51.8982 81.7432 53.9709Z" fill="white"/>
<path d="M69.7334 53.9709C69.7334 56.0437 68.0531 57.724 65.9803 57.724C63.9075 57.724 62.2272 56.0437 62.2272 53.9709C62.2272 51.8982 63.9075 50.2179 65.9803 50.2179C68.0531 50.2179 69.7334 51.8982 69.7334 53.9709Z" fill="white"/>
<path d="M105.763 41.9611C105.763 44.0339 104.083 45.7142 102.01 45.7142C99.9371 45.7142 98.2568 44.0339 98.2568 41.9611C98.2568 39.8883 99.9371 38.208 102.01 38.208C104.083 38.208 105.763 39.8883 105.763 41.9611Z" fill="white"/>
<path d="M93.7531 41.9611C93.7531 44.0339 92.0728 45.7142 90 45.7142C87.9272 45.7142 86.2469 44.0339 86.2469 41.9611C86.2469 39.8883 87.9272 38.208 90 38.208C92.0728 38.208 93.7531 39.8883 93.7531 41.9611Z" fill="white"/>
<path d="M81.7432 41.9611C81.7432 44.0339 80.0629 45.7142 77.9902 45.7142C75.9174 45.7142 74.2371 44.0339 74.2371 41.9611C74.2371 39.8883 75.9174 38.208 77.9902 38.208C80.0629 38.208 81.7432 39.8883 81.7432 41.9611Z" fill="white"/>
</svg>
